<svg xmlns="http://www.w3.org/2000/svg" viewBox="-10.000 -10.000 2070.000 11350.000"><title>Group shift diff: red before, green after</title><rect x="-10.000" y="-10.000" width="2070.000" height="2800.000" fill="#f5f5f5" stroke="#333" stroke-width="1"/><rect x="0.000" y="2429.500" width="560.000" height="340.000" fill="#ff4d4d" fill-opacity="0.10" stroke="#c52222" stroke-width="6" stroke-dasharray="24 18"/><rect x="193.500" y="2429.500" width="560.000" height="340.000" fill="#2fbd5a" fill-opacity="0.12" stroke="#12833a" stroke-width="6"/><line x1="280.000" y1="2599.500" x2="473.500" y2="2599.500" stroke="#ff9800" stroke-width="8" stroke-linecap="round"/><rect x="566.500" y="2429.500" width="480.000" height="300.000" fill="#ff4d4d" fill-opacity="0.10" stroke="#c52222" stroke-width="6" stroke-dasharray="24 18"/><rect x="760.000" y="2429.500" width="480.000" height="300.000" fill="#2fbd5a" fill-opacity="0.12" stroke="#12833a" stroke-width="6"/><line x1="806.500" y1="2579.500" x2="1000.000" y2="2579.500" stroke="#ff9800" stroke-width="8" stroke-linecap="round"/><rect x="-10.000" y="2840.000" width="2070.000" height="2800.000" fill="#f5f5f5" stroke="#333" stroke-width="1"/><rect x="-10.000" y="5690.000" width="2070.000" height="2800.000" fill="#f5f5f5" stroke="#333" stroke-width="1"/><rect x="1533.000" y="5700.000" width="500.000" height="680.000" fill="#ff4d4d" fill-opacity="0.10" stroke="#c52222" stroke-width="6" stroke-dasharray="24 18"/><rect x="1533.000" y="5753.500" width="500.000" height="680.000" fill="#2fbd5a" fill-opacity="0.12" stroke="#12833a" stroke-width="6"/><line x1="1783.000" y1="6040.000" x2="1783.000" y2="6093.500" stroke="#ff9800" stroke-width="8" stroke-linecap="round"/><rect x="1533.000" y="6386.500" width="480.000" height="300.000" fill="#ff4d4d" fill-opacity="0.10" stroke="#c52222" stroke-width="6" stroke-dasharray="24 18"/><rect x="1533.000" y="6440.000" width="480.000" height="300.000" fill="#2fbd5a" fill-opacity="0.12" stroke="#12833a" stroke-width="6"/><line x1="1773.000" y1="6536.500" x2="1773.000" y2="6590.000" stroke="#ff9800" stroke-width="8" stroke-linecap="round"/><rect x="-10.000" y="8540.000" width="2070.000" height="2800.000" fill="#f5f5f5" stroke="#333" stroke-width="1"/><rect x="1913.000" y="8550.000" width="130.000" height="1240.000" fill="#ff4d4d" fill-opacity="0.10" stroke="#c52222" stroke-width="6" stroke-dasharray="24 18"/><rect x="1913.000" y="8710.000" width="130.000" height="1240.000" fill="#2fbd5a" fill-opacity="0.12" stroke="#12833a" stroke-width="6"/><line x1="1978.000" y1="9170.000" x2="1978.000" y2="9330.000" stroke="#ff9800" stroke-width="8" stroke-linecap="round"/></svg>