<svg xmlns="http://www.w3.org/2000/svg" viewBox="-10.000 -10.000 2070.000 11350.000"><title>Group shift diff: red before, green after</title><rect x="-10.000" y="-10.000" width="2070.000" height="2800.000" fill="#f5f5f5" stroke="#333" stroke-width="1"/><rect x="-10.000" y="2840.000" width="2070.000" height="2800.000" fill="#f5f5f5" stroke="#333" stroke-width="1"/><rect x="0.000" y="5349.500" width="420.000" height="260.000" fill="#ff4d4d" fill-opacity="0.10" stroke="#c52222" stroke-width="6" stroke-dasharray="24 18"/><rect x="393.500" y="5349.500" width="420.000" height="260.000" fill="#2fbd5a" fill-opacity="0.12" stroke="#12833a" stroke-width="6"/><line x1="210.000" y1="5479.500" x2="603.500" y2="5479.500" stroke="#ff9800" stroke-width="8" stroke-linecap="round"/><rect x="426.500" y="5349.500" width="420.000" height="260.000" fill="#ff4d4d" fill-opacity="0.10" stroke="#c52222" stroke-width="6" stroke-dasharray="24 18"/><rect x="820.000" y="5349.500" width="420.000" height="260.000" fill="#2fbd5a" fill-opacity="0.12" stroke="#12833a" stroke-width="6"/><line x1="636.500" y1="5479.500" x2="1030.000" y2="5479.500" stroke="#ff9800" stroke-width="8" stroke-linecap="round"/><rect x="-10.000" y="5690.000" width="2070.000" height="2800.000" fill="#f5f5f5" stroke="#333" stroke-width="1"/><rect x="1913.000" y="5700.000" width="120.000" height="980.000" fill="#ff4d4d" fill-opacity="0.10" stroke="#c52222" stroke-width="6" stroke-dasharray="24 18"/><rect x="1913.000" y="6120.000" width="120.000" height="980.000" fill="#2fbd5a" fill-opacity="0.12" stroke="#12833a" stroke-width="6"/><line x1="1973.000" y1="6190.000" x2="1973.000" y2="6610.000" stroke="#ff9800" stroke-width="8" stroke-linecap="round"/><rect x="0.000" y="7853.000" width="460.000" height="620.000" fill="#ff4d4d" fill-opacity="0.10" stroke="#c52222" stroke-width="6" stroke-dasharray="24 18"/><rect x="80.000" y="7853.000" width="460.000" height="620.000" fill="#2fbd5a" fill-opacity="0.12" stroke="#12833a" stroke-width="6"/><line x1="230.000" y1="8163.000" x2="310.000" y2="8163.000" stroke="#ff9800" stroke-width="8" stroke-linecap="round"/><rect x="-10.000" y="8540.000" width="2070.000" height="2800.000" fill="#f5f5f5" stroke="#333" stroke-width="1"/><rect x="0.000" y="10989.500" width="480.000" height="300.000" fill="#ff4d4d" fill-opacity="0.10" stroke="#c52222" stroke-width="6" stroke-dasharray="24 18"/><rect x="153.500" y="10989.500" width="480.000" height="300.000" fill="#2fbd5a" fill-opacity="0.12" stroke="#12833a" stroke-width="6"/><line x1="240.000" y1="11139.500" x2="393.500" y2="11139.500" stroke="#ff9800" stroke-width="8" stroke-linecap="round"/><rect x="486.500" y="10989.500" width="480.000" height="300.000" fill="#ff4d4d" fill-opacity="0.10" stroke="#c52222" stroke-width="6" stroke-dasharray="24 18"/><rect x="640.000" y="10989.500" width="480.000" height="300.000" fill="#2fbd5a" fill-opacity="0.12" stroke="#12833a" stroke-width="6"/><line x1="726.500" y1="11139.500" x2="880.000" y2="11139.500" stroke="#ff9800" stroke-width="8" stroke-linecap="round"/></svg>