<svg xmlns="http://www.w3.org/2000/svg" viewBox="-10.000 -10.000 2070.000 11350.000"><rect x="-10.000" y="-10.000" width="2070.000" height="2800.000" fill="#f5f5f5" stroke="#333" stroke-width="1"/><text x="-5.000" y="10.000" font-size="14" font-weight="bold" fill="#333">Sheet 1 (mdf-2800x2070)</text><rect x="0.000" y="850.000" width="1240.000" height="6.500" fill="#8B0000" stroke="#3a0000" stroke-width="0.3"/><rect x="1300.000" y="0.000" width="6.500" height="850.000" fill="#8B0000" stroke="#3a0000" stroke-width="0.3"/><rect x="0.000" y="1636.500" width="1240.000" height="6.500" fill="#8B0000" stroke="#3a0000" stroke-width="0.3"/><rect x="1240.000" y="1186.500" width="6.500" height="450.000" fill="#8B0000" stroke="#3a0000" stroke-width="0.3"/><rect x="1240.000" y="1643.000" width="6.500" height="723.500" fill="#8B0000" stroke="#3a0000" stroke-width="0.3"/><rect x="1240.000" y="2373.000" width="6.500" height="50.000" fill="#8B0000" stroke="#3a0000" stroke-width="0.3"/><rect x="0.000" y="2423.000" width="560.000" height="6.500" fill="#8B0000" stroke="#3a0000" stroke-width="0.3"/><rect x="566.500" y="2423.000" width="480.000" height="6.500" fill="#8B0000" stroke="#3a0000" stroke-width="0.3"/><rect x="1306.500" y="1180.000" width="680.000" height="6.500" fill="#8B0000" stroke="#3a0000" stroke-width="0.3"/><rect x="1246.500" y="2366.500" width="560.000" height="6.500" fill="#8B0000" stroke="#3a0000" stroke-width="0.3"/><rect x="560.000" y="2429.500" width="6.500" height="300.000" fill="#8B0000" stroke="#3a0000" stroke-width="0.3"/><rect x="0.000" y="0.000" width="1300.000" height="850.000" fill="#cfe8ff" stroke="#1f4a6d" stroke-width="0.5"/><text x="2.000" y="12.000" font-size="10" fill="#1f4a6d">core_b</text><rect x="0.000" y="856.500" width="1240.000" height="780.000" fill="#cfe8ff" stroke="#1f4a6d" stroke-width="0.5"/><text x="2.000" y="868.500" font-size="10" fill="#1f4a6d">core_c</text><rect x="0.000" y="1643.000" width="1240.000" height="780.000" fill="#cfe8ff" stroke="#1f4a6d" stroke-width="0.5"/><text x="2.000" y="1655.000" font-size="10" fill="#1f4a6d">core_c</text><rect x="1306.500" y="0.000" width="740.000" height="1180.000" fill="#cfe8ff" stroke="#1f4a6d" stroke-width="0.5"/><text x="1308.500" y="12.000" font-size="10" fill="#1f4a6d">core_d</text><rect x="1246.500" y="1186.500" width="740.000" height="1180.000" fill="#cfe8ff" stroke="#1f4a6d" stroke-width="0.5"/><text x="1248.500" y="1198.500" font-size="10" fill="#1f4a6d">core_d</text><rect x="1246.500" y="2373.000" width="560.000" height="340.000" fill="#cfe8ff" stroke="#1f4a6d" stroke-width="0.5"/><text x="1248.500" y="2385.000" font-size="10" fill="#1f4a6d">small_a</text><rect x="0.000" y="2429.500" width="560.000" height="340.000" fill="#cfe8ff" stroke="#1f4a6d" stroke-width="0.5"/><text x="2.000" y="2441.500" font-size="10" fill="#1f4a6d">small_a</text><rect x="566.500" y="2429.500" width="480.000" height="300.000" fill="#cfe8ff" stroke="#1f4a6d" stroke-width="0.5"/><text x="568.500" y="2441.500" font-size="10" fill="#1f4a6d">small_b</text><rect x="-10.000" y="2840.000" width="2070.000" height="2800.000" fill="#f5f5f5" stroke="#333" stroke-width="1"/><text x="-5.000" y="2860.000" font-size="14" font-weight="bold" fill="#333">Sheet 2 (mdf-2800x2070)</text><rect x="0.000" y="3590.000" width="540.000" height="6.500" fill="#8B0000" stroke="#3a0000" stroke-width="0.3"/><rect x="540.000" y="2850.000" width="6.500" height="740.000" fill="#8B0000" stroke="#3a0000" stroke-width="0.3"/><rect x="0.000" y="4336.500" width="500.000" height="6.500" fill="#8B0000" stroke="#3a0000" stroke-width="0.3"/><rect x="540.000" y="3596.500" width="6.500" height="373.500" fill="#8B0000" stroke="#3a0000" stroke-width="0.3"/><rect x="540.000" y="3976.500" width="6.500" height="360.000" fill="#8B0000" stroke="#3a0000" stroke-width="0.3"/><rect x="0.000" y="5023.000" width="420.000" height="6.500" fill="#8B0000" stroke="#3a0000" stroke-width="0.3"/><rect x="546.500" y="3970.000" width="820.000" height="6.500" fill="#8B0000" stroke="#3a0000" stroke-width="0.3"/><rect x="1366.500" y="2850.000" width="6.500" height="920.000" fill="#8B0000" stroke="#3a0000" stroke-width="0.3"/><rect x="1366.500" y="3776.500" width="6.500" height="193.500" fill="#8B0000" stroke="#3a0000" stroke-width="0.3"/><rect x="1366.500" y="3976.500" width="6.500" height="660.000" fill="#8B0000" stroke="#3a0000" stroke-width="0.3"/><rect x="546.500" y="5096.500" width="500.000" height="6.500" fill="#8B0000" stroke="#3a0000" stroke-width="0.3"/><rect x="1366.500" y="4643.000" width="6.500" height="453.500" fill="#8B0000" stroke="#3a0000" stroke-width="0.3"/><rect x="0.000" y="5289.500" width="420.000" height="6.500" fill="#8B0000" stroke="#3a0000" stroke-width="0.3"/><rect x="420.000" y="5103.000" width="6.500" height="186.500" fill="#8B0000" stroke="#3a0000" stroke-width="0.3"/><rect x="1373.000" y="3770.000" width="620.000" height="6.500" fill="#8B0000" stroke="#3a0000" stroke-width="0.3"/><rect x="420.000" y="5296.000" width="6.500" height="260.000" fill="#8B0000" stroke="#3a0000" stroke-width="0.3"/><rect x="1373.000" y="4636.500" width="580.000" height="6.500" fill="#8B0000" stroke="#3a0000" stroke-width="0.3"/><rect x="0.000" y="2850.000" width="540.000" height="740.000" fill="#cfe8ff" stroke="#1f4a6d" stroke-width="0.5"/><text x="2.000" y="2862.000" font-size="10" fill="#1f4a6d">panel_e</text><rect x="0.000" y="3596.500" width="540.000" height="740.000" fill="#cfe8ff" stroke="#1f4a6d" stroke-width="0.5"/><text x="2.000" y="3608.500" font-size="10" fill="#1f4a6d">panel_e</text><rect x="0.000" y="4343.000" width="500.000" height="680.000" fill="#cfe8ff" stroke="#1f4a6d" stroke-width="0.5"/><text x="2.000" y="4355.000" font-size="10" fill="#1f4a6d">panel_f</text><rect x="546.500" y="2850.000" width="820.000" height="1120.000" fill="#cfe8ff" stroke="#1f4a6d" stroke-width="0.5"/><text x="548.500" y="2862.000" font-size="10" fill="#1f4a6d">core_e</text><rect x="546.500" y="3976.500" width="820.000" height="1120.000" fill="#cfe8ff" stroke="#1f4a6d" stroke-width="0.5"/><text x="548.500" y="3988.500" font-size="10" fill="#1f4a6d">core_e</text><rect x="0.000" y="5029.500" width="420.000" height="260.000" fill="#cfe8ff" stroke="#1f4a6d" stroke-width="0.5"/><text x="2.000" y="5041.500" font-size="10" fill="#1f4a6d">small_c</text><rect x="1373.000" y="2850.000" width="660.000" height="920.000" fill="#cfe8ff" stroke="#1f4a6d" stroke-width="0.5"/><text x="1375.000" y="2862.000" font-size="10" fill="#1f4a6d">panel_b</text><rect x="0.000" y="5296.000" width="420.000" height="260.000" fill="#cfe8ff" stroke="#1f4a6d" stroke-width="0.5"/><text x="2.000" y="5308.000" font-size="10" fill="#1f4a6d">small_c</text><rect x="1373.000" y="3776.500" width="620.000" height="860.000" fill="#cfe8ff" stroke="#1f4a6d" stroke-width="0.5"/><text x="1375.000" y="3788.500" font-size="10" fill="#1f4a6d">panel_c</text><rect x="426.500" y="5103.000" width="620.000" height="460.000" fill="#cfe8ff" stroke="#1f4a6d" stroke-width="0.5"/><text x="428.500" y="5115.000" font-size="10" fill="#1f4a6d">panel_g</text><rect x="1373.000" y="4643.000" width="580.000" height="800.000" fill="#cfe8ff" stroke="#1f4a6d" stroke-width="0.5"/><text x="1375.000" y="4655.000" font-size="10" fill="#1f4a6d">panel_d</text><rect x="-10.000" y="5690.000" width="2070.000" height="2800.000" fill="#f5f5f5" stroke="#333" stroke-width="1"/><text x="-5.000" y="5710.000" font-size="14" font-weight="bold" fill="#333">Sheet 3 (mdf-2800x2070)</text><rect x="760.000" y="5700.000" width="6.500" height="1040.000" fill="#8B0000" stroke="#3a0000" stroke-width="0.3"/><rect x="0.000" y="6740.000" width="700.000" height="6.500" fill="#8B0000" stroke="#3a0000" stroke-width="0.3"/><rect x="706.500" y="6740.000" width="53.500" height="6.500" fill="#8B0000" stroke="#3a0000" stroke-width="0.3"/><rect x="766.500" y="6740.000" width="640.000" height="6.500" fill="#8B0000" stroke="#3a0000" stroke-width="0.3"/><rect x="1413.000" y="6740.000" width="113.500" height="6.500" fill="#8B0000" stroke="#3a0000" stroke-width="0.3"/><rect x="1526.500" y="5700.000" width="6.500" height="680.000" fill="#8B0000" stroke="#3a0000" stroke-width="0.3"/><rect x="1526.500" y="6386.500" width="6.500" height="300.000" fill="#8B0000" stroke="#3a0000" stroke-width="0.3"/><rect x="700.000" y="6746.500" width="6.500" height="980.000" fill="#8B0000" stroke="#3a0000" stroke-width="0.3"/><rect x="0.000" y="7726.500" width="700.000" height="6.500" fill="#8B0000" stroke="#3a0000" stroke-width="0.3"/><rect x="706.500" y="7726.500" width="213.500" height="6.500" fill="#8B0000" stroke="#3a0000" stroke-width="0.3"/><rect x="1406.500" y="6746.500" width="6.500" height="860.000" fill="#8B0000" stroke="#3a0000" stroke-width="0.3"/><rect x="1406.500" y="7613.000" width="6.500" height="113.500" fill="#8B0000" stroke="#3a0000" stroke-width="0.3"/><rect x="926.500" y="7726.500" width="460.000" height="6.500" fill="#8B0000" stroke="#3a0000" stroke-width="0.3"/><rect x="920.000" y="7733.000" width="6.500" height="620.000" fill="#8B0000" stroke="#3a0000" stroke-width="0.3"/><rect x="1413.000" y="7606.500" width="580.000" height="6.500" fill="#8B0000" stroke="#3a0000" stroke-width="0.3"/><rect x="1533.000" y="6380.000" width="480.000" height="6.500" fill="#8B0000" stroke="#3a0000" stroke-width="0.3"/><rect x="0.000" y="5700.000" width="760.000" height="1040.000" fill="#cfe8ff" stroke="#1f4a6d" stroke-width="0.5"/><text x="2.000" y="5712.000" font-size="10" fill="#1f4a6d">core_f</text><rect x="766.500" y="5700.000" width="760.000" height="1040.000" fill="#cfe8ff" stroke="#1f4a6d" stroke-width="0.5"/><text x="768.500" y="5712.000" font-size="10" fill="#1f4a6d">core_f</text><rect x="0.000" y="6746.500" width="700.000" height="980.000" fill="#cfe8ff" stroke="#1f4a6d" stroke-width="0.5"/><text x="2.000" y="6758.500" font-size="10" fill="#1f4a6d">panel_a</text><rect x="706.500" y="6746.500" width="700.000" height="980.000" fill="#cfe8ff" stroke="#1f4a6d" stroke-width="0.5"/><text x="708.500" y="6758.500" font-size="10" fill="#1f4a6d">panel_a</text><rect x="0.000" y="7733.000" width="920.000" height="660.000" fill="#cfe8ff" stroke="#1f4a6d" stroke-width="0.5"/><text x="2.000" y="7745.000" font-size="10" fill="#1f4a6d">panel_b</text><rect x="1413.000" y="6746.500" width="620.000" height="860.000" fill="#cfe8ff" stroke="#1f4a6d" stroke-width="0.5"/><text x="1415.000" y="6758.500" font-size="10" fill="#1f4a6d">panel_c</text><rect x="1413.000" y="7613.000" width="580.000" height="800.000" fill="#cfe8ff" stroke="#1f4a6d" stroke-width="0.5"/><text x="1415.000" y="7625.000" font-size="10" fill="#1f4a6d">panel_d</text><rect x="1533.000" y="5700.000" width="500.000" height="680.000" fill="#cfe8ff" stroke="#1f4a6d" stroke-width="0.5"/><text x="1535.000" y="5712.000" font-size="10" fill="#1f4a6d">panel_f</text><rect x="926.500" y="7733.000" width="460.000" height="620.000" fill="#cfe8ff" stroke="#1f4a6d" stroke-width="0.5"/><text x="928.500" y="7745.000" font-size="10" fill="#1f4a6d">panel_g</text><rect x="1533.000" y="6386.500" width="480.000" height="300.000" fill="#cfe8ff" stroke="#1f4a6d" stroke-width="0.5"/><text x="1535.000" y="6398.500" font-size="10" fill="#1f4a6d">small_b</text><rect x="-10.000" y="8540.000" width="2070.000" height="2800.000" fill="#f5f5f5" stroke="#333" stroke-width="1"/><text x="-5.000" y="8560.000" font-size="14" font-weight="bold" fill="#333">Sheet 4 (mdf-2800x2070)</text><rect x="950.000" y="8550.000" width="6.500" height="1400.000" fill="#8B0000" stroke="#3a0000" stroke-width="0.3"/><rect x="0.000" y="9950.000" width="950.000" height="6.500" fill="#8B0000" stroke="#3a0000" stroke-width="0.3"/><rect x="956.500" y="9950.000" width="443.500" height="6.500" fill="#8B0000" stroke="#3a0000" stroke-width="0.3"/><rect x="1406.500" y="9950.000" width="150.000" height="6.500" fill="#8B0000" stroke="#3a0000" stroke-width="0.3"/><rect x="1563.000" y="9950.000" width="150.000" height="6.500" fill="#8B0000" stroke="#3a0000" stroke-width="0.3"/><rect x="1906.500" y="8550.000" width="6.500" height="1240.000" fill="#8B0000" stroke="#3a0000" stroke-width="0.3"/><rect x="1719.500" y="9950.000" width="120.000" height="6.500" fill="#8B0000" stroke="#3a0000" stroke-width="0.3"/><rect x="1846.000" y="9950.000" width="60.500" height="6.500" fill="#8B0000" stroke="#3a0000" stroke-width="0.3"/><rect x="0.000" y="10136.500" width="1400.000" height="6.500" fill="#8B0000" stroke="#3a0000" stroke-width="0.3"/><rect x="1400.000" y="9956.500" width="6.500" height="180.000" fill="#8B0000" stroke="#3a0000" stroke-width="0.3"/><rect x="1400.000" y="10143.000" width="6.500" height="180.000" fill="#8B0000" stroke="#3a0000" stroke-width="0.3"/><rect x="0.000" y="10323.000" width="1300.000" height="6.500" fill="#8B0000" stroke="#3a0000" stroke-width="0.3"/><rect x="1556.500" y="9956.500" width="6.500" height="1360.000" fill="#8B0000" stroke="#3a0000" stroke-width="0.3"/><rect x="1713.000" y="9956.500" width="6.500" height="980.000" fill="#8B0000" stroke="#3a0000" stroke-width="0.3"/><rect x="0.000" y="11179.500" width="1240.000" height="6.500" fill="#8B0000" stroke="#3a0000" stroke-width="0.3"/><rect x="1839.500" y="9956.500" width="6.500" height="980.000" fill="#8B0000" stroke="#3a0000" stroke-width="0.3"/><rect x="0.000" y="8550.000" width="950.000" height="1400.000" fill="#cfe8ff" stroke="#1f4a6d" stroke-width="0.5"/><text x="2.000" y="8562.000" font-size="10" fill="#1f4a6d">core_a</text><rect x="956.500" y="8550.000" width="950.000" height="1400.000" fill="#cfe8ff" stroke="#1f4a6d" stroke-width="0.5"/><text x="958.500" y="8562.000" font-size="10" fill="#1f4a6d">core_a</text><rect x="0.000" y="9956.500" width="1400.000" height="180.000" fill="#cfe8ff" stroke="#1f4a6d" stroke-width="0.5"/><text x="2.000" y="9968.500" font-size="10" fill="#1f4a6d">strip_a</text><rect x="0.000" y="10143.000" width="1400.000" height="180.000" fill="#cfe8ff" stroke="#1f4a6d" stroke-width="0.5"/><text x="2.000" y="10155.000" font-size="10" fill="#1f4a6d">strip_a</text><rect x="1406.500" y="9956.500" width="150.000" height="1360.000" fill="#cfe8ff" stroke="#1f4a6d" stroke-width="0.5"/><text x="1408.500" y="9968.500" font-size="10" fill="#1f4a6d">strip_b</text><rect x="1563.000" y="9956.500" width="150.000" height="1360.000" fill="#cfe8ff" stroke="#1f4a6d" stroke-width="0.5"/><text x="1565.000" y="9968.500" font-size="10" fill="#1f4a6d">strip_b</text><rect x="0.000" y="10329.500" width="1300.000" height="850.000" fill="#cfe8ff" stroke="#1f4a6d" stroke-width="0.5"/><text x="2.000" y="10341.500" font-size="10" fill="#1f4a6d">core_b</text><rect x="1913.000" y="8550.000" width="130.000" height="1240.000" fill="#cfe8ff" stroke="#1f4a6d" stroke-width="0.5"/><text x="1915.000" y="8562.000" font-size="10" fill="#1f4a6d">strip_c</text><rect x="0.000" y="11186.000" width="1240.000" height="130.000" fill="#cfe8ff" stroke="#1f4a6d" stroke-width="0.5"/><text x="2.000" y="11198.000" font-size="10" fill="#1f4a6d">strip_c</text><rect x="1719.500" y="9956.500" width="120.000" height="980.000" fill="#cfe8ff" stroke="#1f4a6d" stroke-width="0.5"/><text x="1721.500" y="9968.500" font-size="10" fill="#1f4a6d">strip_d</text><rect x="1846.000" y="9956.500" width="120.000" height="980.000" fill="#cfe8ff" stroke="#1f4a6d" stroke-width="0.5"/><text x="1848.000" y="9968.500" font-size="10" fill="#1f4a6d">strip_d</text></svg>