<svg xmlns="http://www.w3.org/2000/svg" viewBox="-10.000 -10.000 2070.000 11350.000"><rect x="-10.000" y="-10.000" width="2070.000" height="2800.000" fill="#f5f5f5" stroke="#333" stroke-width="1"/><text x="-5.000" y="10.000" font-size="14" font-weight="bold" fill="#333">Sheet 1 (mdf-2800x2070)</text><rect x="0.000" y="180.000" width="1400.000" height="6.500" fill="#8B0000" stroke="#3a0000" stroke-width="0.3"/><rect x="1400.000" y="0.000" width="6.500" height="180.000" fill="#8B0000" stroke="#3a0000" stroke-width="0.3"/><rect x="1400.000" y="186.500" width="6.500" height="153.500" fill="#8B0000" stroke="#3a0000" stroke-width="0.3"/><rect x="0.000" y="366.500" width="700.000" height="6.500" fill="#8B0000" stroke="#3a0000" stroke-width="0.3"/><rect x="706.500" y="366.500" width="693.500" height="6.500" fill="#8B0000" stroke="#3a0000" stroke-width="0.3"/><rect x="1693.000" y="340.000" width="273.500" height="6.500" fill="#8B0000" stroke="#3a0000" stroke-width="0.3"/><rect x="700.000" y="373.000" width="6.500" height="700.000" fill="#8B0000" stroke="#3a0000" stroke-width="0.3"/><rect x="0.000" y="1353.000" width="660.000" height="6.500" fill="#8B0000" stroke="#3a0000" stroke-width="0.3"/><rect x="666.500" y="1353.000" width="33.500" height="6.500" fill="#8B0000" stroke="#3a0000" stroke-width="0.3"/><rect x="700.000" y="1079.500" width="6.500" height="130.000" fill="#8B0000" stroke="#3a0000" stroke-width="0.3"/><rect x="700.000" y="1216.000" width="6.500" height="120.000" fill="#8B0000" stroke="#3a0000" stroke-width="0.3"/><rect x="706.500" y="1073.000" width="980.000" height="6.500" fill="#8B0000" stroke="#3a0000" stroke-width="0.3"/><rect x="1686.500" y="373.000" width="6.500" height="533.500" fill="#8B0000" stroke="#3a0000" stroke-width="0.3"/><rect x="660.000" y="1359.500" width="6.500" height="920.000" fill="#8B0000" stroke="#3a0000" stroke-width="0.3"/><rect x="0.000" y="2279.500" width="660.000" height="6.500" fill="#8B0000" stroke="#3a0000" stroke-width="0.3"/><rect x="1326.500" y="1359.500" width="6.500" height="843.000" fill="#8B0000" stroke="#3a0000" stroke-width="0.3"/><rect x="666.500" y="2279.500" width="660.000" height="6.500" fill="#8B0000" stroke="#3a0000" stroke-width="0.3"/><rect x="1366.500" y="2202.500" width="586.500" height="6.500" fill="#8B0000" stroke="#3a0000" stroke-width="0.3"/><rect x="1333.000" y="1336.000" width="353.500" height="6.500" fill="#8B0000" stroke="#3a0000" stroke-width="0.3"/><rect x="0.000" y="2436.000" width="1360.000" height="6.500" fill="#8B0000" stroke="#3a0000" stroke-width="0.3"/><rect x="1360.000" y="2286.000" width="6.500" height="150.000" fill="#8B0000" stroke="#3a0000" stroke-width="0.3"/><rect x="0.000" y="2592.500" width="1240.000" height="6.500" fill="#8B0000" stroke="#3a0000" stroke-width="0.3"/><rect x="1360.000" y="2442.500" width="6.500" height="150.000" fill="#8B0000" stroke="#3a0000" stroke-width="0.3"/><rect x="706.500" y="1209.500" width="980.000" height="6.500" fill="#8B0000" stroke="#3a0000" stroke-width="0.3"/><rect x="0.000" y="0.000" width="1400.000" height="180.000" fill="#cfe8ff" stroke="#1f4a6d" stroke-width="0.5"/><text x="2.000" y="12.000" font-size="10" fill="#1f4a6d">strip_a</text><rect x="0.000" y="186.500" width="1400.000" height="180.000" fill="#cfe8ff" stroke="#1f4a6d" stroke-width="0.5"/><text x="2.000" y="198.500" font-size="10" fill="#1f4a6d">strip_a</text><rect x="1406.500" y="0.000" width="560.000" height="340.000" fill="#cfe8ff" stroke="#1f4a6d" stroke-width="0.5"/><text x="1408.500" y="12.000" font-size="10" fill="#1f4a6d">small_a</text><rect x="0.000" y="373.000" width="700.000" height="980.000" fill="#cfe8ff" stroke="#1f4a6d" stroke-width="0.5"/><text x="2.000" y="385.000" font-size="10" fill="#1f4a6d">panel_a</text><rect x="706.500" y="373.000" width="980.000" height="700.000" fill="#cfe8ff" stroke="#1f4a6d" stroke-width="0.5"/><text x="708.500" y="385.000" font-size="10" fill="#1f4a6d">panel_a</text><rect x="0.000" y="1359.500" width="660.000" height="920.000" fill="#cfe8ff" stroke="#1f4a6d" stroke-width="0.5"/><text x="2.000" y="1371.500" font-size="10" fill="#1f4a6d">panel_b</text><rect x="666.500" y="1359.500" width="660.000" height="920.000" fill="#cfe8ff" stroke="#1f4a6d" stroke-width="0.5"/><text x="668.500" y="1371.500" font-size="10" fill="#1f4a6d">panel_b</text><rect x="1333.000" y="1342.500" width="620.000" height="860.000" fill="#cfe8ff" stroke="#1f4a6d" stroke-width="0.5"/><text x="1335.000" y="1354.500" font-size="10" fill="#1f4a6d">panel_c</text><rect x="0.000" y="2286.000" width="1360.000" height="150.000" fill="#cfe8ff" stroke="#1f4a6d" stroke-width="0.5"/><text x="2.000" y="2298.000" font-size="10" fill="#1f4a6d">strip_b</text><rect x="0.000" y="2442.500" width="1360.000" height="150.000" fill="#cfe8ff" stroke="#1f4a6d" stroke-width="0.5"/><text x="2.000" y="2454.500" font-size="10" fill="#1f4a6d">strip_b</text><rect x="0.000" y="2599.000" width="1240.000" height="130.000" fill="#cfe8ff" stroke="#1f4a6d" stroke-width="0.5"/><text x="2.000" y="2611.000" font-size="10" fill="#1f4a6d">strip_c</text><rect x="706.500" y="1079.500" width="1240.000" height="130.000" fill="#cfe8ff" stroke="#1f4a6d" stroke-width="0.5"/><text x="708.500" y="1091.500" font-size="10" fill="#1f4a6d">strip_c</text><rect x="1366.500" y="2209.000" width="620.000" height="460.000" fill="#cfe8ff" stroke="#1f4a6d" stroke-width="0.5"/><text x="1368.500" y="2221.000" font-size="10" fill="#1f4a6d">panel_g</text><rect x="1693.000" y="346.500" width="340.000" height="560.000" fill="#cfe8ff" stroke="#1f4a6d" stroke-width="0.5"/><text x="1695.000" y="358.500" font-size="10" fill="#1f4a6d">small_a</text><rect x="706.500" y="1216.000" width="980.000" height="120.000" fill="#cfe8ff" stroke="#1f4a6d" stroke-width="0.5"/><text x="708.500" y="1228.000" font-size="10" fill="#1f4a6d">strip_d</text><rect x="-10.000" y="2840.000" width="2070.000" height="2800.000" fill="#f5f5f5" stroke="#333" stroke-width="1"/><text x="-5.000" y="2860.000" font-size="14" font-weight="bold" fill="#333">Sheet 2 (mdf-2800x2070)</text><rect x="0.000" y="3700.000" width="1300.000" height="6.500" fill="#8B0000" stroke="#3a0000" stroke-width="0.3"/><rect x="1300.000" y="2850.000" width="6.500" height="850.000" fill="#8B0000" stroke="#3a0000" stroke-width="0.3"/><rect x="0.000" y="4556.500" width="1240.000" height="6.500" fill="#8B0000" stroke="#3a0000" stroke-width="0.3"/><rect x="1300.000" y="3706.500" width="6.500" height="323.500" fill="#8B0000" stroke="#3a0000" stroke-width="0.3"/><rect x="1246.500" y="4556.500" width="53.500" height="6.500" fill="#8B0000" stroke="#3a0000" stroke-width="0.3"/><rect x="1300.000" y="4036.500" width="6.500" height="500.000" fill="#8B0000" stroke="#3a0000" stroke-width="0.3"/><rect x="1240.000" y="4563.000" width="6.500" height="780.000" fill="#8B0000" stroke="#3a0000" stroke-width="0.3"/><rect x="0.000" y="5343.000" width="420.000" height="6.500" fill="#8B0000" stroke="#3a0000" stroke-width="0.3"/><rect x="426.500" y="5343.000" width="420.000" height="6.500" fill="#8B0000" stroke="#3a0000" stroke-width="0.3"/><rect x="1306.500" y="4030.000" width="680.000" height="6.500" fill="#8B0000" stroke="#3a0000" stroke-width="0.3"/><rect x="420.000" y="5349.500" width="6.500" height="260.000" fill="#8B0000" stroke="#3a0000" stroke-width="0.3"/><rect x="0.000" y="2850.000" width="1300.000" height="850.000" fill="#cfe8ff" stroke="#1f4a6d" stroke-width="0.5"/><text x="2.000" y="2862.000" font-size="10" fill="#1f4a6d">core_b</text><rect x="0.000" y="3706.500" width="1300.000" height="850.000" fill="#cfe8ff" stroke="#1f4a6d" stroke-width="0.5"/><text x="2.000" y="3718.500" font-size="10" fill="#1f4a6d">core_b</text><rect x="0.000" y="4563.000" width="1240.000" height="780.000" fill="#cfe8ff" stroke="#1f4a6d" stroke-width="0.5"/><text x="2.000" y="4575.000" font-size="10" fill="#1f4a6d">core_c</text><rect x="1306.500" y="2850.000" width="740.000" height="1180.000" fill="#cfe8ff" stroke="#1f4a6d" stroke-width="0.5"/><text x="1308.500" y="2862.000" font-size="10" fill="#1f4a6d">core_d</text><rect x="1246.500" y="4563.000" width="760.000" height="1040.000" fill="#cfe8ff" stroke="#1f4a6d" stroke-width="0.5"/><text x="1248.500" y="4575.000" font-size="10" fill="#1f4a6d">core_f</text><rect x="1306.500" y="4036.500" width="680.000" height="500.000" fill="#cfe8ff" stroke="#1f4a6d" stroke-width="0.5"/><text x="1308.500" y="4048.500" font-size="10" fill="#1f4a6d">panel_f</text><rect x="0.000" y="5349.500" width="420.000" height="260.000" fill="#cfe8ff" stroke="#1f4a6d" stroke-width="0.5"/><text x="2.000" y="5361.500" font-size="10" fill="#1f4a6d">small_c</text><rect x="426.500" y="5349.500" width="420.000" height="260.000" fill="#cfe8ff" stroke="#1f4a6d" stroke-width="0.5"/><text x="428.500" y="5361.500" font-size="10" fill="#1f4a6d">small_c</text><rect x="-10.000" y="5690.000" width="2070.000" height="2800.000" fill="#f5f5f5" stroke="#333" stroke-width="1"/><text x="-5.000" y="5710.000" font-size="14" font-weight="bold" fill="#333">Sheet 3 (mdf-2800x2070)</text><rect x="950.000" y="5700.000" width="6.500" height="1400.000" fill="#8B0000" stroke="#3a0000" stroke-width="0.3"/><rect x="0.000" y="7100.000" width="540.000" height="6.500" fill="#8B0000" stroke="#3a0000" stroke-width="0.3"/><rect x="546.500" y="7100.000" width="403.500" height="6.500" fill="#8B0000" stroke="#3a0000" stroke-width="0.3"/><rect x="1906.500" y="5700.000" width="6.500" height="980.000" fill="#8B0000" stroke="#3a0000" stroke-width="0.3"/><rect x="956.500" y="7100.000" width="270.000" height="6.500" fill="#8B0000" stroke="#3a0000" stroke-width="0.3"/><rect x="1233.000" y="7100.000" width="673.500" height="6.500" fill="#8B0000" stroke="#3a0000" stroke-width="0.3"/><rect x="540.000" y="7106.500" width="6.500" height="500.000" fill="#8B0000" stroke="#3a0000" stroke-width="0.3"/><rect x="540.000" y="7613.000" width="6.500" height="233.500" fill="#8B0000" stroke="#3a0000" stroke-width="0.3"/><rect x="0.000" y="7846.500" width="460.000" height="6.500" fill="#8B0000" stroke="#3a0000" stroke-width="0.3"/><rect x="546.500" y="7606.500" width="620.000" height="6.500" fill="#8B0000" stroke="#3a0000" stroke-width="0.3"/><rect x="1226.500" y="7106.500" width="6.500" height="500.000" fill="#8B0000" stroke="#3a0000" stroke-width="0.3"/><rect x="1166.500" y="7693.000" width="6.500" height="580.000" fill="#8B0000" stroke="#3a0000" stroke-width="0.3"/><rect x="1233.000" y="7686.500" width="740.000" height="6.500" fill="#8B0000" stroke="#3a0000" stroke-width="0.3"/><rect x="0.000" y="5700.000" width="950.000" height="1400.000" fill="#cfe8ff" stroke="#1f4a6d" stroke-width="0.5"/><text x="2.000" y="5712.000" font-size="10" fill="#1f4a6d">core_a</text><rect x="956.500" y="5700.000" width="950.000" height="1400.000" fill="#cfe8ff" stroke="#1f4a6d" stroke-width="0.5"/><text x="958.500" y="5712.000" font-size="10" fill="#1f4a6d">core_a</text><rect x="1913.000" y="5700.000" width="120.000" height="980.000" fill="#cfe8ff" stroke="#1f4a6d" stroke-width="0.5"/><text x="1915.000" y="5712.000" font-size="10" fill="#1f4a6d">strip_d</text><rect x="0.000" y="7106.500" width="540.000" height="740.000" fill="#cfe8ff" stroke="#1f4a6d" stroke-width="0.5"/><text x="2.000" y="7118.500" font-size="10" fill="#1f4a6d">panel_e</text><rect x="546.500" y="7106.500" width="680.000" height="500.000" fill="#cfe8ff" stroke="#1f4a6d" stroke-width="0.5"/><text x="548.500" y="7118.500" font-size="10" fill="#1f4a6d">panel_f</text><rect x="546.500" y="7613.000" width="620.000" height="860.000" fill="#cfe8ff" stroke="#1f4a6d" stroke-width="0.5"/><text x="548.500" y="7625.000" font-size="10" fill="#1f4a6d">panel_c</text><rect x="1233.000" y="7106.500" width="800.000" height="580.000" fill="#cfe8ff" stroke="#1f4a6d" stroke-width="0.5"/><text x="1235.000" y="7118.500" font-size="10" fill="#1f4a6d">panel_d</text><rect x="1173.000" y="7693.000" width="800.000" height="580.000" fill="#cfe8ff" stroke="#1f4a6d" stroke-width="0.5"/><text x="1175.000" y="7705.000" font-size="10" fill="#1f4a6d">panel_d</text><rect x="0.000" y="7853.000" width="460.000" height="620.000" fill="#cfe8ff" stroke="#1f4a6d" stroke-width="0.5"/><text x="2.000" y="7865.000" font-size="10" fill="#1f4a6d">panel_g</text><rect x="-10.000" y="8540.000" width="2070.000" height="2800.000" fill="#f5f5f5" stroke="#333" stroke-width="1"/><text x="-5.000" y="8560.000" font-size="14" font-weight="bold" fill="#333">Sheet 4 (mdf-2800x2070)</text><rect x="1240.000" y="8550.000" width="6.500" height="780.000" fill="#8B0000" stroke="#3a0000" stroke-width="0.3"/><rect x="0.000" y="9330.000" width="1120.000" height="6.500" fill="#8B0000" stroke="#3a0000" stroke-width="0.3"/><rect x="1246.500" y="9730.000" width="640.000" height="6.500" fill="#8B0000" stroke="#3a0000" stroke-width="0.3"/><rect x="0.000" y="10156.500" width="1120.000" height="6.500" fill="#8B0000" stroke="#3a0000" stroke-width="0.3"/><rect x="1120.000" y="9736.500" width="6.500" height="420.000" fill="#8B0000" stroke="#3a0000" stroke-width="0.3"/><rect x="1120.000" y="10163.000" width="6.500" height="613.500" fill="#8B0000" stroke="#3a0000" stroke-width="0.3"/><rect x="1120.000" y="10783.000" width="6.500" height="200.000" fill="#8B0000" stroke="#3a0000" stroke-width="0.3"/><rect x="0.000" y="10983.000" width="480.000" height="6.500" fill="#8B0000" stroke="#3a0000" stroke-width="0.3"/><rect x="486.500" y="10983.000" width="480.000" height="6.500" fill="#8B0000" stroke="#3a0000" stroke-width="0.3"/><rect x="1126.500" y="10776.500" width="740.000" height="6.500" fill="#8B0000" stroke="#3a0000" stroke-width="0.3"/><rect x="480.000" y="10989.500" width="6.500" height="300.000" fill="#8B0000" stroke="#3a0000" stroke-width="0.3"/><rect x="0.000" y="8550.000" width="1240.000" height="780.000" fill="#cfe8ff" stroke="#1f4a6d" stroke-width="0.5"/><text x="2.000" y="8562.000" font-size="10" fill="#1f4a6d">core_c</text><rect x="1246.500" y="8550.000" width="740.000" height="1180.000" fill="#cfe8ff" stroke="#1f4a6d" stroke-width="0.5"/><text x="1248.500" y="8562.000" font-size="10" fill="#1f4a6d">core_d</text><rect x="0.000" y="9336.500" width="1120.000" height="820.000" fill="#cfe8ff" stroke="#1f4a6d" stroke-width="0.5"/><text x="2.000" y="9348.500" font-size="10" fill="#1f4a6d">core_e</text><rect x="0.000" y="10163.000" width="1120.000" height="820.000" fill="#cfe8ff" stroke="#1f4a6d" stroke-width="0.5"/><text x="2.000" y="10175.000" font-size="10" fill="#1f4a6d">core_e</text><rect x="1126.500" y="9736.500" width="760.000" height="1040.000" fill="#cfe8ff" stroke="#1f4a6d" stroke-width="0.5"/><text x="1128.500" y="9748.500" font-size="10" fill="#1f4a6d">core_f</text><rect x="1126.500" y="10783.000" width="740.000" height="540.000" fill="#cfe8ff" stroke="#1f4a6d" stroke-width="0.5"/><text x="1128.500" y="10795.000" font-size="10" fill="#1f4a6d">panel_e</text><rect x="0.000" y="10989.500" width="480.000" height="300.000" fill="#cfe8ff" stroke="#1f4a6d" stroke-width="0.5"/><text x="2.000" y="11001.500" font-size="10" fill="#1f4a6d">small_b</text><rect x="486.500" y="10989.500" width="480.000" height="300.000" fill="#cfe8ff" stroke="#1f4a6d" stroke-width="0.5"/><text x="488.500" y="11001.500" font-size="10" fill="#1f4a6d">small_b</text></svg>