<svg xmlns="http://www.w3.org/2000/svg" viewBox="-10.000 -10.000 2070.000 11350.000"><rect x="-10.000" y="-10.000" width="2070.000" height="2800.000" fill="#f5f5f5" stroke="#333" stroke-width="1"/><text x="-5.000" y="10.000" font-size="14" font-weight="bold" fill="#333">Sheet 1 (mdf-2800x2070)</text><rect x="0.000" y="850.000" width="1300.000" height="6.500" fill="#8B0000" stroke="#3a0000" stroke-width="0.3"/><rect x="1300.000" y="0.000" width="6.500" height="850.000" fill="#8B0000" stroke="#3a0000" stroke-width="0.3"/><rect x="0.000" y="1706.500" width="1240.000" height="6.500" fill="#8B0000" stroke="#3a0000" stroke-width="0.3"/><rect x="1300.000" y="856.500" width="6.500" height="323.500" fill="#8B0000" stroke="#3a0000" stroke-width="0.3"/><rect x="1246.500" y="1706.500" width="53.500" height="6.500" fill="#8B0000" stroke="#3a0000" stroke-width="0.3"/><rect x="1300.000" y="1186.500" width="6.500" height="500.000" fill="#8B0000" stroke="#3a0000" stroke-width="0.3"/><rect x="1240.000" y="1713.000" width="6.500" height="780.000" fill="#8B0000" stroke="#3a0000" stroke-width="0.3"/><rect x="0.000" y="2493.000" width="1240.000" height="6.500" fill="#8B0000" stroke="#3a0000" stroke-width="0.3"/><rect x="1306.500" y="1180.000" width="680.000" height="6.500" fill="#8B0000" stroke="#3a0000" stroke-width="0.3"/><rect x="1240.000" y="2499.500" width="6.500" height="130.000" fill="#8B0000" stroke="#3a0000" stroke-width="0.3"/><rect x="1240.000" y="2636.000" width="6.500" height="117.000" fill="#8B0000" stroke="#3a0000" stroke-width="0.3"/><rect x="0.000" y="2629.500" width="1240.000" height="6.500" fill="#8B0000" stroke="#3a0000" stroke-width="0.3"/><rect x="0.000" y="0.000" width="1300.000" height="850.000" fill="#cfe8ff" stroke="#1f4a6d" stroke-width="0.5"/><text x="2.000" y="12.000" font-size="10" fill="#1f4a6d">core_b</text><rect x="0.000" y="856.500" width="1300.000" height="850.000" fill="#cfe8ff" stroke="#1f4a6d" stroke-width="0.5"/><text x="2.000" y="868.500" font-size="10" fill="#1f4a6d">core_b</text><rect x="0.000" y="1713.000" width="1240.000" height="780.000" fill="#cfe8ff" stroke="#1f4a6d" stroke-width="0.5"/><text x="2.000" y="1725.000" font-size="10" fill="#1f4a6d">core_c</text><rect x="1306.500" y="0.000" width="740.000" height="1180.000" fill="#cfe8ff" stroke="#1f4a6d" stroke-width="0.5"/><text x="1308.500" y="12.000" font-size="10" fill="#1f4a6d">core_d</text><rect x="1246.500" y="1713.000" width="760.000" height="1040.000" fill="#cfe8ff" stroke="#1f4a6d" stroke-width="0.5"/><text x="1248.500" y="1725.000" font-size="10" fill="#1f4a6d">core_f</text><rect x="1306.500" y="1186.500" width="680.000" height="500.000" fill="#cfe8ff" stroke="#1f4a6d" stroke-width="0.5"/><text x="1308.500" y="1198.500" font-size="10" fill="#1f4a6d">panel_f</text><rect x="0.000" y="2499.500" width="1240.000" height="130.000" fill="#cfe8ff" stroke="#1f4a6d" stroke-width="0.5"/><text x="2.000" y="2511.500" font-size="10" fill="#1f4a6d">strip_c</text><rect x="0.000" y="2636.000" width="1240.000" height="130.000" fill="#cfe8ff" stroke="#1f4a6d" stroke-width="0.5"/><text x="2.000" y="2648.000" font-size="10" fill="#1f4a6d">strip_c</text><rect x="-10.000" y="2840.000" width="2070.000" height="2800.000" fill="#f5f5f5" stroke="#333" stroke-width="1"/><text x="-5.000" y="2860.000" font-size="14" font-weight="bold" fill="#333">Sheet 2 (mdf-2800x2070)</text><rect x="980.000" y="2850.000" width="6.500" height="700.000" fill="#8B0000" stroke="#3a0000" stroke-width="0.3"/><rect x="0.000" y="3550.000" width="950.000" height="6.500" fill="#8B0000" stroke="#3a0000" stroke-width="0.3"/><rect x="986.500" y="3610.000" width="920.000" height="6.500" fill="#8B0000" stroke="#3a0000" stroke-width="0.3"/><rect x="1913.000" y="3610.000" width="113.500" height="6.500" fill="#8B0000" stroke="#3a0000" stroke-width="0.3"/><rect x="950.000" y="3616.500" width="6.500" height="1340.000" fill="#8B0000" stroke="#3a0000" stroke-width="0.3"/><rect x="0.000" y="4956.500" width="860.000" height="6.500" fill="#8B0000" stroke="#3a0000" stroke-width="0.3"/><rect x="956.500" y="5016.500" width="650.000" height="6.500" fill="#8B0000" stroke="#3a0000" stroke-width="0.3"/><rect x="1613.000" y="5016.500" width="293.500" height="6.500" fill="#8B0000" stroke="#3a0000" stroke-width="0.3"/><rect x="1906.500" y="3616.500" width="6.500" height="980.000" fill="#8B0000" stroke="#3a0000" stroke-width="0.3"/><rect x="860.000" y="5023.000" width="6.500" height="540.000" fill="#8B0000" stroke="#3a0000" stroke-width="0.3"/><rect x="1606.500" y="5023.000" width="6.500" height="260.000" fill="#8B0000" stroke="#3a0000" stroke-width="0.3"/><rect x="1606.500" y="5289.500" width="6.500" height="260.000" fill="#8B0000" stroke="#3a0000" stroke-width="0.3"/><rect x="1613.000" y="5283.000" width="420.000" height="6.500" fill="#8B0000" stroke="#3a0000" stroke-width="0.3"/><rect x="0.000" y="2850.000" width="980.000" height="700.000" fill="#cfe8ff" stroke="#1f4a6d" stroke-width="0.5"/><text x="2.000" y="2862.000" font-size="10" fill="#1f4a6d">panel_a</text><rect x="986.500" y="2850.000" width="1040.000" height="760.000" fill="#cfe8ff" stroke="#1f4a6d" stroke-width="0.5"/><text x="988.500" y="2862.000" font-size="10" fill="#1f4a6d">core_f</text><rect x="0.000" y="3556.500" width="950.000" height="1400.000" fill="#cfe8ff" stroke="#1f4a6d" stroke-width="0.5"/><text x="2.000" y="3568.500" font-size="10" fill="#1f4a6d">core_a</text><rect x="956.500" y="3616.500" width="950.000" height="1400.000" fill="#cfe8ff" stroke="#1f4a6d" stroke-width="0.5"/><text x="958.500" y="3628.500" font-size="10" fill="#1f4a6d">core_a</text><rect x="0.000" y="4963.000" width="860.000" height="620.000" fill="#cfe8ff" stroke="#1f4a6d" stroke-width="0.5"/><text x="2.000" y="4975.000" font-size="10" fill="#1f4a6d">panel_c</text><rect x="866.500" y="5023.000" width="740.000" height="540.000" fill="#cfe8ff" stroke="#1f4a6d" stroke-width="0.5"/><text x="868.500" y="5035.000" font-size="10" fill="#1f4a6d">panel_e</text><rect x="1613.000" y="5023.000" width="420.000" height="260.000" fill="#cfe8ff" stroke="#1f4a6d" stroke-width="0.5"/><text x="1615.000" y="5035.000" font-size="10" fill="#1f4a6d">small_c</text><rect x="1613.000" y="5289.500" width="420.000" height="260.000" fill="#cfe8ff" stroke="#1f4a6d" stroke-width="0.5"/><text x="1615.000" y="5301.500" font-size="10" fill="#1f4a6d">small_c</text><rect x="1913.000" y="3616.500" width="120.000" height="980.000" fill="#cfe8ff" stroke="#1f4a6d" stroke-width="0.5"/><text x="1915.000" y="3628.500" font-size="10" fill="#1f4a6d">strip_d</text><rect x="-10.000" y="5690.000" width="2070.000" height="2800.000" fill="#f5f5f5" stroke="#333" stroke-width="1"/><text x="-5.000" y="5710.000" font-size="14" font-weight="bold" fill="#333">Sheet 3 (mdf-2800x2070)</text><rect x="0.000" y="6520.000" width="1120.000" height="6.500" fill="#8B0000" stroke="#3a0000" stroke-width="0.3"/><rect x="1120.000" y="5700.000" width="6.500" height="660.000" fill="#8B0000" stroke="#3a0000" stroke-width="0.3"/><rect x="1120.000" y="6366.500" width="6.500" height="153.500" fill="#8B0000" stroke="#3a0000" stroke-width="0.3"/><rect x="0.000" y="7346.500" width="980.000" height="6.500" fill="#8B0000" stroke="#3a0000" stroke-width="0.3"/><rect x="1120.000" y="6526.500" width="6.500" height="500.000" fill="#8B0000" stroke="#3a0000" stroke-width="0.3"/><rect x="1120.000" y="7033.000" width="6.500" height="313.500" fill="#8B0000" stroke="#3a0000" stroke-width="0.3"/><rect x="986.500" y="7346.500" width="120.000" height="6.500" fill="#8B0000" stroke="#3a0000" stroke-width="0.3"/><rect x="0.000" y="8053.000" width="480.000" height="6.500" fill="#8B0000" stroke="#3a0000" stroke-width="0.3"/><rect x="486.500" y="8053.000" width="480.000" height="6.500" fill="#8B0000" stroke="#3a0000" stroke-width="0.3"/><rect x="980.000" y="7353.000" width="6.500" height="700.000" fill="#8B0000" stroke="#3a0000" stroke-width="0.3"/><rect x="1126.500" y="6360.000" width="920.000" height="6.500" fill="#8B0000" stroke="#3a0000" stroke-width="0.3"/><rect x="1126.500" y="7026.500" width="740.000" height="6.500" fill="#8B0000" stroke="#3a0000" stroke-width="0.3"/><rect x="1873.000" y="7026.500" width="150.000" height="6.500" fill="#8B0000" stroke="#3a0000" stroke-width="0.3"/><rect x="1126.500" y="7573.000" width="666.500" height="6.500" fill="#8B0000" stroke="#3a0000" stroke-width="0.3"/><rect x="1866.500" y="7033.000" width="6.500" height="540.000" fill="#8B0000" stroke="#3a0000" stroke-width="0.3"/><rect x="1113.000" y="8079.500" width="560.000" height="6.500" fill="#8B0000" stroke="#3a0000" stroke-width="0.3"/><rect x="1106.500" y="7579.500" width="6.500" height="500.000" fill="#8B0000" stroke="#3a0000" stroke-width="0.3"/><rect x="1106.500" y="8086.000" width="6.500" height="247.000" fill="#8B0000" stroke="#3a0000" stroke-width="0.3"/><rect x="480.000" y="8059.500" width="6.500" height="300.000" fill="#8B0000" stroke="#3a0000" stroke-width="0.3"/><rect x="0.000" y="5700.000" width="1120.000" height="820.000" fill="#cfe8ff" stroke="#1f4a6d" stroke-width="0.5"/><text x="2.000" y="5712.000" font-size="10" fill="#1f4a6d">core_e</text><rect x="0.000" y="6526.500" width="1120.000" height="820.000" fill="#cfe8ff" stroke="#1f4a6d" stroke-width="0.5"/><text x="2.000" y="6538.500" font-size="10" fill="#1f4a6d">core_e</text><rect x="0.000" y="7353.000" width="980.000" height="700.000" fill="#cfe8ff" stroke="#1f4a6d" stroke-width="0.5"/><text x="2.000" y="7365.000" font-size="10" fill="#1f4a6d">panel_a</text><rect x="1126.500" y="5700.000" width="920.000" height="660.000" fill="#cfe8ff" stroke="#1f4a6d" stroke-width="0.5"/><text x="1128.500" y="5712.000" font-size="10" fill="#1f4a6d">panel_b</text><rect x="1126.500" y="6366.500" width="920.000" height="660.000" fill="#cfe8ff" stroke="#1f4a6d" stroke-width="0.5"/><text x="1128.500" y="6378.500" font-size="10" fill="#1f4a6d">panel_b</text><rect x="1126.500" y="7033.000" width="740.000" height="540.000" fill="#cfe8ff" stroke="#1f4a6d" stroke-width="0.5"/><text x="1128.500" y="7045.000" font-size="10" fill="#1f4a6d">panel_e</text><rect x="1113.000" y="7579.500" width="680.000" height="500.000" fill="#cfe8ff" stroke="#1f4a6d" stroke-width="0.5"/><text x="1115.000" y="7591.500" font-size="10" fill="#1f4a6d">panel_f</text><rect x="1113.000" y="8086.000" width="560.000" height="340.000" fill="#cfe8ff" stroke="#1f4a6d" stroke-width="0.5"/><text x="1115.000" y="8098.000" font-size="10" fill="#1f4a6d">small_a</text><rect x="0.000" y="8059.500" width="480.000" height="300.000" fill="#cfe8ff" stroke="#1f4a6d" stroke-width="0.5"/><text x="2.000" y="8071.500" font-size="10" fill="#1f4a6d">small_b</text><rect x="486.500" y="8059.500" width="480.000" height="300.000" fill="#cfe8ff" stroke="#1f4a6d" stroke-width="0.5"/><text x="488.500" y="8071.500" font-size="10" fill="#1f4a6d">small_b</text><rect x="1873.000" y="7033.000" width="150.000" height="1360.000" fill="#cfe8ff" stroke="#1f4a6d" stroke-width="0.5"/><text x="1875.000" y="7045.000" font-size="10" fill="#1f4a6d">strip_b</text><rect x="986.500" y="7353.000" width="120.000" height="980.000" fill="#cfe8ff" stroke="#1f4a6d" stroke-width="0.5"/><text x="988.500" y="7365.000" font-size="10" fill="#1f4a6d">strip_d</text><rect x="-10.000" y="8540.000" width="2070.000" height="2800.000" fill="#f5f5f5" stroke="#333" stroke-width="1"/><text x="-5.000" y="8560.000" font-size="14" font-weight="bold" fill="#333">Sheet 4 (mdf-2800x2070)</text><rect x="0.000" y="9010.000" width="620.000" height="6.500" fill="#8B0000" stroke="#3a0000" stroke-width="0.3"/><rect x="620.000" y="8550.000" width="6.500" height="460.000" fill="#8B0000" stroke="#3a0000" stroke-width="0.3"/><rect x="0.000" y="9476.500" width="620.000" height="6.500" fill="#8B0000" stroke="#3a0000" stroke-width="0.3"/><rect x="620.000" y="9016.500" width="6.500" height="273.500" fill="#8B0000" stroke="#3a0000" stroke-width="0.3"/><rect x="620.000" y="9296.500" width="6.500" height="180.000" fill="#8B0000" stroke="#3a0000" stroke-width="0.3"/><rect x="0.000" y="10343.000" width="580.000" height="6.500" fill="#8B0000" stroke="#3a0000" stroke-width="0.3"/><rect x="620.000" y="9483.000" width="6.500" height="393.500" fill="#8B0000" stroke="#3a0000" stroke-width="0.3"/><rect x="620.000" y="9883.000" width="6.500" height="460.000" fill="#8B0000" stroke="#3a0000" stroke-width="0.3"/><rect x="626.500" y="9290.000" width="800.000" height="6.500" fill="#8B0000" stroke="#3a0000" stroke-width="0.3"/><rect x="1806.500" y="8550.000" width="6.500" height="740.000" fill="#8B0000" stroke="#3a0000" stroke-width="0.3"/><rect x="1433.000" y="9290.000" width="340.000" height="6.500" fill="#8B0000" stroke="#3a0000" stroke-width="0.3"/><rect x="626.500" y="9876.500" width="180.000" height="6.500" fill="#8B0000" stroke="#3a0000" stroke-width="0.3"/><rect x="813.000" y="9876.500" width="180.000" height="6.500" fill="#8B0000" stroke="#3a0000" stroke-width="0.3"/><rect x="999.500" y="9876.500" width="427.000" height="6.500" fill="#8B0000" stroke="#3a0000" stroke-width="0.3"/><rect x="1426.500" y="9296.500" width="6.500" height="560.000" fill="#8B0000" stroke="#3a0000" stroke-width="0.3"/><rect x="806.500" y="9883.000" width="6.500" height="1400.000" fill="#8B0000" stroke="#3a0000" stroke-width="0.3"/><rect x="993.000" y="9883.000" width="6.500" height="1240.000" fill="#8B0000" stroke="#3a0000" stroke-width="0.3"/><rect x="0.000" y="8550.000" width="620.000" height="460.000" fill="#cfe8ff" stroke="#1f4a6d" stroke-width="0.5"/><text x="2.000" y="8562.000" font-size="10" fill="#1f4a6d">panel_g</text><rect x="0.000" y="9016.500" width="620.000" height="460.000" fill="#cfe8ff" stroke="#1f4a6d" stroke-width="0.5"/><text x="2.000" y="9028.500" font-size="10" fill="#1f4a6d">panel_g</text><rect x="0.000" y="9483.000" width="620.000" height="860.000" fill="#cfe8ff" stroke="#1f4a6d" stroke-width="0.5"/><text x="2.000" y="9495.000" font-size="10" fill="#1f4a6d">panel_c</text><rect x="626.500" y="8550.000" width="1180.000" height="740.000" fill="#cfe8ff" stroke="#1f4a6d" stroke-width="0.5"/><text x="628.500" y="8562.000" font-size="10" fill="#1f4a6d">core_d</text><rect x="0.000" y="10349.500" width="580.000" height="800.000" fill="#cfe8ff" stroke="#1f4a6d" stroke-width="0.5"/><text x="2.000" y="10361.500" font-size="10" fill="#1f4a6d">panel_d</text><rect x="626.500" y="9296.500" width="800.000" height="580.000" fill="#cfe8ff" stroke="#1f4a6d" stroke-width="0.5"/><text x="628.500" y="9308.500" font-size="10" fill="#1f4a6d">panel_d</text><rect x="626.500" y="9883.000" width="180.000" height="1400.000" fill="#cfe8ff" stroke="#1f4a6d" stroke-width="0.5"/><text x="628.500" y="9895.000" font-size="10" fill="#1f4a6d">strip_a</text><rect x="813.000" y="9883.000" width="180.000" height="1400.000" fill="#cfe8ff" stroke="#1f4a6d" stroke-width="0.5"/><text x="815.000" y="9895.000" font-size="10" fill="#1f4a6d">strip_a</text><rect x="999.500" y="9883.000" width="780.000" height="1240.000" fill="#cfe8ff" stroke="#1f4a6d" stroke-width="0.5"/><text x="1001.500" y="9895.000" font-size="10" fill="#1f4a6d">core_c</text><rect x="1813.000" y="8550.000" width="150.000" height="1360.000" fill="#cfe8ff" stroke="#1f4a6d" stroke-width="0.5"/><text x="1815.000" y="8562.000" font-size="10" fill="#1f4a6d">strip_b</text><rect x="1433.000" y="9296.500" width="340.000" height="560.000" fill="#cfe8ff" stroke="#1f4a6d" stroke-width="0.5"/><text x="1435.000" y="9308.500" font-size="10" fill="#1f4a6d">small_a</text></svg>