<svg xmlns="http://www.w3.org/2000/svg" viewBox="-10.000 -10.000 2070.000 11350.000"><rect x="-10.000" y="-10.000" width="2070.000" height="2800.000" fill="#f5f5f5" stroke="#333" stroke-width="1"/><text x="-5.000" y="10.000" font-size="14" font-weight="bold" fill="#333">Sheet 1 (mdf-2800x2070)</text><rect x="0.000" y="850.000" width="1300.000" height="6.500" fill="#8B0000" stroke="#3a0000" stroke-width="0.3"/><rect x="1300.000" y="0.000" width="6.500" height="850.000" fill="#8B0000" stroke="#3a0000" stroke-width="0.3"/><rect x="0.000" y="1706.500" width="1240.000" height="6.500" fill="#8B0000" stroke="#3a0000" stroke-width="0.3"/><rect x="1300.000" y="856.500" width="6.500" height="323.500" fill="#8B0000" stroke="#3a0000" stroke-width="0.3"/><rect x="1246.500" y="1706.500" width="53.500" height="6.500" fill="#8B0000" stroke="#3a0000" stroke-width="0.3"/><rect x="1300.000" y="1186.500" width="6.500" height="500.000" fill="#8B0000" stroke="#3a0000" stroke-width="0.3"/><rect x="1240.000" y="1713.000" width="6.500" height="780.000" fill="#8B0000" stroke="#3a0000" stroke-width="0.3"/><rect x="0.000" y="2493.000" width="1240.000" height="6.500" fill="#8B0000" stroke="#3a0000" stroke-width="0.3"/><rect x="1306.500" y="1180.000" width="680.000" height="6.500" fill="#8B0000" stroke="#3a0000" stroke-width="0.3"/><rect x="1240.000" y="2499.500" width="6.500" height="130.000" fill="#8B0000" stroke="#3a0000" stroke-width="0.3"/><rect x="1240.000" y="2636.000" width="6.500" height="117.000" fill="#8B0000" stroke="#3a0000" stroke-width="0.3"/><rect x="0.000" y="2629.500" width="1240.000" height="6.500" fill="#8B0000" stroke="#3a0000" stroke-width="0.3"/><rect x="0.000" y="0.000" width="1300.000" height="850.000" fill="#cfe8ff" stroke="#1f4a6d" stroke-width="0.5"/><text x="2.000" y="12.000" font-size="10" fill="#1f4a6d">core_b</text><rect x="0.000" y="856.500" width="1300.000" height="850.000" fill="#cfe8ff" stroke="#1f4a6d" stroke-width="0.5"/><text x="2.000" y="868.500" font-size="10" fill="#1f4a6d">core_b</text><rect x="0.000" y="1713.000" width="1240.000" height="780.000" fill="#cfe8ff" stroke="#1f4a6d" stroke-width="0.5"/><text x="2.000" y="1725.000" font-size="10" fill="#1f4a6d">core_c</text><rect x="1306.500" y="0.000" width="740.000" height="1180.000" fill="#cfe8ff" stroke="#1f4a6d" stroke-width="0.5"/><text x="1308.500" y="12.000" font-size="10" fill="#1f4a6d">core_d</text><rect x="1246.500" y="1713.000" width="760.000" height="1040.000" fill="#cfe8ff" stroke="#1f4a6d" stroke-width="0.5"/><text x="1248.500" y="1725.000" font-size="10" fill="#1f4a6d">core_f</text><rect x="1306.500" y="1186.500" width="680.000" height="500.000" fill="#cfe8ff" stroke="#1f4a6d" stroke-width="0.5"/><text x="1308.500" y="1198.500" font-size="10" fill="#1f4a6d">panel_f</text><rect x="0.000" y="2499.500" width="1240.000" height="130.000" fill="#cfe8ff" stroke="#1f4a6d" stroke-width="0.5"/><text x="2.000" y="2511.500" font-size="10" fill="#1f4a6d">strip_c</text><rect x="0.000" y="2636.000" width="1240.000" height="130.000" fill="#cfe8ff" stroke="#1f4a6d" stroke-width="0.5"/><text x="2.000" y="2648.000" font-size="10" fill="#1f4a6d">strip_c</text><rect x="-10.000" y="2840.000" width="2070.000" height="2800.000" fill="#f5f5f5" stroke="#333" stroke-width="1"/><text x="-5.000" y="2860.000" font-size="14" font-weight="bold" fill="#333">Sheet 2 (mdf-2800x2070)</text><rect x="0.000" y="3800.000" width="1400.000" height="6.500" fill="#8B0000" stroke="#3a0000" stroke-width="0.3"/><rect x="1400.000" y="2850.000" width="6.500" height="860.000" fill="#8B0000" stroke="#3a0000" stroke-width="0.3"/><rect x="1400.000" y="3716.500" width="6.500" height="83.500" fill="#8B0000" stroke="#3a0000" stroke-width="0.3"/><rect x="0.000" y="4756.500" width="1400.000" height="6.500" fill="#8B0000" stroke="#3a0000" stroke-width="0.3"/><rect x="1400.000" y="3806.500" width="6.500" height="770.000" fill="#8B0000" stroke="#3a0000" stroke-width="0.3"/><rect x="1400.000" y="4583.000" width="6.500" height="173.500" fill="#8B0000" stroke="#3a0000" stroke-width="0.3"/><rect x="0.000" y="4943.000" width="1400.000" height="6.500" fill="#8B0000" stroke="#3a0000" stroke-width="0.3"/><rect x="1400.000" y="4763.000" width="6.500" height="180.000" fill="#8B0000" stroke="#3a0000" stroke-width="0.3"/><rect x="0.000" y="5129.500" width="1360.000" height="6.500" fill="#8B0000" stroke="#3a0000" stroke-width="0.3"/><rect x="1400.000" y="4949.500" width="6.500" height="180.000" fill="#8B0000" stroke="#3a0000" stroke-width="0.3"/><rect x="0.000" y="5286.000" width="1360.000" height="6.500" fill="#8B0000" stroke="#3a0000" stroke-width="0.3"/><rect x="0.000" y="5442.500" width="980.000" height="6.500" fill="#8B0000" stroke="#3a0000" stroke-width="0.3"/><rect x="986.500" y="5442.500" width="373.500" height="6.500" fill="#8B0000" stroke="#3a0000" stroke-width="0.3"/><rect x="980.000" y="5449.000" width="6.500" height="120.000" fill="#8B0000" stroke="#3a0000" stroke-width="0.3"/><rect x="1406.500" y="3710.000" width="620.000" height="6.500" fill="#8B0000" stroke="#3a0000" stroke-width="0.3"/><rect x="1406.500" y="4576.500" width="580.000" height="6.500" fill="#8B0000" stroke="#3a0000" stroke-width="0.3"/><rect x="0.000" y="2850.000" width="1400.000" height="950.000" fill="#cfe8ff" stroke="#1f4a6d" stroke-width="0.5"/><text x="2.000" y="2862.000" font-size="10" fill="#1f4a6d">core_a</text><rect x="0.000" y="3806.500" width="1400.000" height="950.000" fill="#cfe8ff" stroke="#1f4a6d" stroke-width="0.5"/><text x="2.000" y="3818.500" font-size="10" fill="#1f4a6d">core_a</text><rect x="0.000" y="4763.000" width="1400.000" height="180.000" fill="#cfe8ff" stroke="#1f4a6d" stroke-width="0.5"/><text x="2.000" y="4775.000" font-size="10" fill="#1f4a6d">strip_a</text><rect x="0.000" y="4949.500" width="1400.000" height="180.000" fill="#cfe8ff" stroke="#1f4a6d" stroke-width="0.5"/><text x="2.000" y="4961.500" font-size="10" fill="#1f4a6d">strip_a</text><rect x="0.000" y="5136.000" width="1360.000" height="150.000" fill="#cfe8ff" stroke="#1f4a6d" stroke-width="0.5"/><text x="2.000" y="5148.000" font-size="10" fill="#1f4a6d">strip_b</text><rect x="0.000" y="5292.500" width="1360.000" height="150.000" fill="#cfe8ff" stroke="#1f4a6d" stroke-width="0.5"/><text x="2.000" y="5304.500" font-size="10" fill="#1f4a6d">strip_b</text><rect x="0.000" y="5449.000" width="980.000" height="120.000" fill="#cfe8ff" stroke="#1f4a6d" stroke-width="0.5"/><text x="2.000" y="5461.000" font-size="10" fill="#1f4a6d">strip_d</text><rect x="986.500" y="5449.000" width="980.000" height="120.000" fill="#cfe8ff" stroke="#1f4a6d" stroke-width="0.5"/><text x="988.500" y="5461.000" font-size="10" fill="#1f4a6d">strip_d</text><rect x="1406.500" y="2850.000" width="620.000" height="860.000" fill="#cfe8ff" stroke="#1f4a6d" stroke-width="0.5"/><text x="1408.500" y="2862.000" font-size="10" fill="#1f4a6d">panel_c</text><rect x="1406.500" y="3716.500" width="620.000" height="860.000" fill="#cfe8ff" stroke="#1f4a6d" stroke-width="0.5"/><text x="1408.500" y="3728.500" font-size="10" fill="#1f4a6d">panel_c</text><rect x="1406.500" y="4583.000" width="580.000" height="800.000" fill="#cfe8ff" stroke="#1f4a6d" stroke-width="0.5"/><text x="1408.500" y="4595.000" font-size="10" fill="#1f4a6d">panel_d</text><rect x="-10.000" y="5690.000" width="2070.000" height="2800.000" fill="#f5f5f5" stroke="#333" stroke-width="1"/><text x="-5.000" y="5710.000" font-size="14" font-weight="bold" fill="#333">Sheet 3 (mdf-2800x2070)</text><rect x="0.000" y="6480.000" width="1120.000" height="6.500" fill="#8B0000" stroke="#3a0000" stroke-width="0.3"/><rect x="1240.000" y="5700.000" width="6.500" height="780.000" fill="#8B0000" stroke="#3a0000" stroke-width="0.3"/><rect x="0.000" y="7306.500" width="1120.000" height="6.500" fill="#8B0000" stroke="#3a0000" stroke-width="0.3"/><rect x="1120.000" y="6886.500" width="6.500" height="420.000" fill="#8B0000" stroke="#3a0000" stroke-width="0.3"/><rect x="1120.000" y="7313.000" width="6.500" height="613.500" fill="#8B0000" stroke="#3a0000" stroke-width="0.3"/><rect x="0.000" y="8133.000" width="560.000" height="6.500" fill="#8B0000" stroke="#3a0000" stroke-width="0.3"/><rect x="566.500" y="8133.000" width="553.500" height="6.500" fill="#8B0000" stroke="#3a0000" stroke-width="0.3"/><rect x="1246.500" y="6880.000" width="640.000" height="6.500" fill="#8B0000" stroke="#3a0000" stroke-width="0.3"/><rect x="1133.000" y="7926.500" width="740.000" height="6.500" fill="#8B0000" stroke="#3a0000" stroke-width="0.3"/><rect x="1126.500" y="8139.500" width="6.500" height="333.500" fill="#8B0000" stroke="#3a0000" stroke-width="0.3"/><rect x="560.000" y="8139.500" width="6.500" height="340.000" fill="#8B0000" stroke="#3a0000" stroke-width="0.3"/><rect x="0.000" y="5700.000" width="1240.000" height="780.000" fill="#cfe8ff" stroke="#1f4a6d" stroke-width="0.5"/><text x="2.000" y="5712.000" font-size="10" fill="#1f4a6d">core_c</text><rect x="0.000" y="6486.500" width="1120.000" height="820.000" fill="#cfe8ff" stroke="#1f4a6d" stroke-width="0.5"/><text x="2.000" y="6498.500" font-size="10" fill="#1f4a6d">core_e</text><rect x="0.000" y="7313.000" width="1120.000" height="820.000" fill="#cfe8ff" stroke="#1f4a6d" stroke-width="0.5"/><text x="2.000" y="7325.000" font-size="10" fill="#1f4a6d">core_e</text><rect x="1246.500" y="5700.000" width="740.000" height="1180.000" fill="#cfe8ff" stroke="#1f4a6d" stroke-width="0.5"/><text x="1248.500" y="5712.000" font-size="10" fill="#1f4a6d">core_d</text><rect x="1126.500" y="6886.500" width="760.000" height="1040.000" fill="#cfe8ff" stroke="#1f4a6d" stroke-width="0.5"/><text x="1128.500" y="6898.500" font-size="10" fill="#1f4a6d">core_f</text><rect x="1133.000" y="7933.000" width="740.000" height="540.000" fill="#cfe8ff" stroke="#1f4a6d" stroke-width="0.5"/><text x="1135.000" y="7945.000" font-size="10" fill="#1f4a6d">panel_e</text><rect x="0.000" y="8139.500" width="560.000" height="340.000" fill="#cfe8ff" stroke="#1f4a6d" stroke-width="0.5"/><text x="2.000" y="8151.500" font-size="10" fill="#1f4a6d">small_a</text><rect x="566.500" y="8139.500" width="560.000" height="340.000" fill="#cfe8ff" stroke="#1f4a6d" stroke-width="0.5"/><text x="568.500" y="8151.500" font-size="10" fill="#1f4a6d">small_a</text><rect x="-10.000" y="8540.000" width="2070.000" height="2800.000" fill="#f5f5f5" stroke="#333" stroke-width="1"/><text x="-5.000" y="8560.000" font-size="14" font-weight="bold" fill="#333">Sheet 4 (mdf-2800x2070)</text><rect x="800.000" y="8550.000" width="6.500" height="540.000" fill="#8B0000" stroke="#3a0000" stroke-width="0.3"/><rect x="0.000" y="9130.000" width="800.000" height="6.500" fill="#8B0000" stroke="#3a0000" stroke-width="0.3"/><rect x="1546.500" y="8550.000" width="6.500" height="300.000" fill="#8B0000" stroke="#3a0000" stroke-width="0.3"/><rect x="980.000" y="9136.500" width="6.500" height="700.000" fill="#8B0000" stroke="#3a0000" stroke-width="0.3"/><rect x="0.000" y="9836.500" width="680.000" height="6.500" fill="#8B0000" stroke="#3a0000" stroke-width="0.3"/><rect x="686.500" y="9836.500" width="293.500" height="6.500" fill="#8B0000" stroke="#3a0000" stroke-width="0.3"/><rect x="986.500" y="9836.500" width="320.000" height="6.500" fill="#8B0000" stroke="#3a0000" stroke-width="0.3"/><rect x="1313.000" y="9836.500" width="620.000" height="6.500" fill="#8B0000" stroke="#3a0000" stroke-width="0.3"/><rect x="680.000" y="9843.000" width="6.500" height="460.000" fill="#8B0000" stroke="#3a0000" stroke-width="0.3"/><rect x="0.000" y="10343.000" width="680.000" height="6.500" fill="#8B0000" stroke="#3a0000" stroke-width="0.3"/><rect x="1306.500" y="9843.000" width="6.500" height="460.000" fill="#8B0000" stroke="#3a0000" stroke-width="0.3"/><rect x="920.000" y="10349.500" width="6.500" height="660.000" fill="#8B0000" stroke="#3a0000" stroke-width="0.3"/><rect x="0.000" y="11009.500" width="480.000" height="6.500" fill="#8B0000" stroke="#3a0000" stroke-width="0.3"/><rect x="486.500" y="11009.500" width="420.000" height="6.500" fill="#8B0000" stroke="#3a0000" stroke-width="0.3"/><rect x="913.000" y="11009.500" width="7.000" height="6.500" fill="#8B0000" stroke="#3a0000" stroke-width="0.3"/><rect x="926.500" y="11009.500" width="406.500" height="6.500" fill="#8B0000" stroke="#3a0000" stroke-width="0.3"/><rect x="480.000" y="11016.000" width="6.500" height="260.000" fill="#8B0000" stroke="#3a0000" stroke-width="0.3"/><rect x="906.500" y="11016.000" width="6.500" height="260.000" fill="#8B0000" stroke="#3a0000" stroke-width="0.3"/><rect x="0.000" y="8550.000" width="800.000" height="580.000" fill="#cfe8ff" stroke="#1f4a6d" stroke-width="0.5"/><text x="2.000" y="8562.000" font-size="10" fill="#1f4a6d">panel_d</text><rect x="806.500" y="8550.000" width="740.000" height="540.000" fill="#cfe8ff" stroke="#1f4a6d" stroke-width="0.5"/><text x="808.500" y="8562.000" font-size="10" fill="#1f4a6d">panel_e</text><rect x="1553.000" y="8550.000" width="480.000" height="300.000" fill="#cfe8ff" stroke="#1f4a6d" stroke-width="0.5"/><text x="1555.000" y="8562.000" font-size="10" fill="#1f4a6d">small_b</text><rect x="0.000" y="9136.500" width="980.000" height="700.000" fill="#cfe8ff" stroke="#1f4a6d" stroke-width="0.5"/><text x="2.000" y="9148.500" font-size="10" fill="#1f4a6d">panel_a</text><rect x="986.500" y="9136.500" width="980.000" height="700.000" fill="#cfe8ff" stroke="#1f4a6d" stroke-width="0.5"/><text x="988.500" y="9148.500" font-size="10" fill="#1f4a6d">panel_a</text><rect x="0.000" y="9843.000" width="680.000" height="500.000" fill="#cfe8ff" stroke="#1f4a6d" stroke-width="0.5"/><text x="2.000" y="9855.000" font-size="10" fill="#1f4a6d">panel_f</text><rect x="686.500" y="9843.000" width="620.000" height="460.000" fill="#cfe8ff" stroke="#1f4a6d" stroke-width="0.5"/><text x="688.500" y="9855.000" font-size="10" fill="#1f4a6d">panel_g</text><rect x="1313.000" y="9843.000" width="620.000" height="460.000" fill="#cfe8ff" stroke="#1f4a6d" stroke-width="0.5"/><text x="1315.000" y="9855.000" font-size="10" fill="#1f4a6d">panel_g</text><rect x="0.000" y="10349.500" width="920.000" height="660.000" fill="#cfe8ff" stroke="#1f4a6d" stroke-width="0.5"/><text x="2.000" y="10361.500" font-size="10" fill="#1f4a6d">panel_b</text><rect x="926.500" y="10349.500" width="920.000" height="660.000" fill="#cfe8ff" stroke="#1f4a6d" stroke-width="0.5"/><text x="928.500" y="10361.500" font-size="10" fill="#1f4a6d">panel_b</text><rect x="0.000" y="11016.000" width="480.000" height="300.000" fill="#cfe8ff" stroke="#1f4a6d" stroke-width="0.5"/><text x="2.000" y="11028.000" font-size="10" fill="#1f4a6d">small_b</text><rect x="486.500" y="11016.000" width="420.000" height="260.000" fill="#cfe8ff" stroke="#1f4a6d" stroke-width="0.5"/><text x="488.500" y="11028.000" font-size="10" fill="#1f4a6d">small_c</text><rect x="913.000" y="11016.000" width="420.000" height="260.000" fill="#cfe8ff" stroke="#1f4a6d" stroke-width="0.5"/><text x="915.000" y="11028.000" font-size="10" fill="#1f4a6d">small_c</text></svg>