<svg xmlns="http://www.w3.org/2000/svg" viewBox="-10.000 -10.000 2070.000 11350.000"><rect x="-10.000" y="-10.000" width="2070.000" height="2800.000" fill="#f5f5f5" stroke="#333" stroke-width="1"/><text x="-5.000" y="10.000" font-size="14" font-weight="bold" fill="#333">Sheet 1 (mdf-2800x2070)</text><rect x="950.000" y="0.000" width="6.500" height="1400.000" fill="#8B0000" stroke="#3a0000" stroke-width="0.3"/><rect x="0.000" y="1400.000" width="150.000" height="6.500" fill="#8B0000" stroke="#3a0000" stroke-width="0.3"/><rect x="156.500" y="1400.000" width="150.000" height="6.500" fill="#8B0000" stroke="#3a0000" stroke-width="0.3"/><rect x="313.000" y="1400.000" width="637.000" height="6.500" fill="#8B0000" stroke="#3a0000" stroke-width="0.3"/><rect x="1906.500" y="0.000" width="6.500" height="1240.000" fill="#8B0000" stroke="#3a0000" stroke-width="0.3"/><rect x="956.500" y="1400.000" width="206.500" height="6.500" fill="#8B0000" stroke="#3a0000" stroke-width="0.3"/><rect x="1169.500" y="1400.000" width="737.000" height="6.500" fill="#8B0000" stroke="#3a0000" stroke-width="0.3"/><rect x="150.000" y="1406.500" width="6.500" height="1360.000" fill="#8B0000" stroke="#3a0000" stroke-width="0.3"/><rect x="306.500" y="1406.500" width="6.500" height="1300.000" fill="#8B0000" stroke="#3a0000" stroke-width="0.3"/><rect x="1163.000" y="1406.500" width="6.500" height="1300.000" fill="#8B0000" stroke="#3a0000" stroke-width="0.3"/><rect x="0.000" y="0.000" width="950.000" height="1400.000" fill="#cfe8ff" stroke="#1f4a6d" stroke-width="0.5"/><text x="2.000" y="12.000" font-size="10" fill="#1f4a6d">core_a</text><rect x="956.500" y="0.000" width="950.000" height="1400.000" fill="#cfe8ff" stroke="#1f4a6d" stroke-width="0.5"/><text x="958.500" y="12.000" font-size="10" fill="#1f4a6d">core_a</text><rect x="1913.000" y="0.000" width="130.000" height="1240.000" fill="#cfe8ff" stroke="#1f4a6d" stroke-width="0.5"/><text x="1915.000" y="12.000" font-size="10" fill="#1f4a6d">strip_c</text><rect x="0.000" y="1406.500" width="150.000" height="1360.000" fill="#cfe8ff" stroke="#1f4a6d" stroke-width="0.5"/><text x="2.000" y="1418.500" font-size="10" fill="#1f4a6d">strip_b</text><rect x="156.500" y="1406.500" width="150.000" height="1360.000" fill="#cfe8ff" stroke="#1f4a6d" stroke-width="0.5"/><text x="158.500" y="1418.500" font-size="10" fill="#1f4a6d">strip_b</text><rect x="313.000" y="1406.500" width="850.000" height="1300.000" fill="#cfe8ff" stroke="#1f4a6d" stroke-width="0.5"/><text x="315.000" y="1418.500" font-size="10" fill="#1f4a6d">core_b</text><rect x="1169.500" y="1406.500" width="850.000" height="1300.000" fill="#cfe8ff" stroke="#1f4a6d" stroke-width="0.5"/><text x="1171.500" y="1418.500" font-size="10" fill="#1f4a6d">core_b</text><rect x="-10.000" y="2840.000" width="2070.000" height="2800.000" fill="#f5f5f5" stroke="#333" stroke-width="1"/><text x="-5.000" y="2860.000" font-size="14" font-weight="bold" fill="#333">Sheet 2 (mdf-2800x2070)</text><rect x="620.000" y="2850.000" width="6.500" height="460.000" fill="#8B0000" stroke="#3a0000" stroke-width="0.3"/><rect x="0.000" y="3310.000" width="620.000" height="6.500" fill="#8B0000" stroke="#3a0000" stroke-width="0.3"/><rect x="626.500" y="4030.000" width="740.000" height="6.500" fill="#8B0000" stroke="#3a0000" stroke-width="0.3"/><rect x="620.000" y="3316.500" width="6.500" height="713.500" fill="#8B0000" stroke="#3a0000" stroke-width="0.3"/><rect x="1366.500" y="2850.000" width="6.500" height="920.000" fill="#8B0000" stroke="#3a0000" stroke-width="0.3"/><rect x="1366.500" y="3776.500" width="6.500" height="253.500" fill="#8B0000" stroke="#3a0000" stroke-width="0.3"/><rect x="620.000" y="4036.500" width="6.500" height="140.000" fill="#8B0000" stroke="#3a0000" stroke-width="0.3"/><rect x="620.000" y="4183.000" width="6.500" height="860.000" fill="#8B0000" stroke="#3a0000" stroke-width="0.3"/><rect x="1366.500" y="4036.500" width="6.500" height="660.000" fill="#8B0000" stroke="#3a0000" stroke-width="0.3"/><rect x="1366.500" y="4703.000" width="6.500" height="460.000" fill="#8B0000" stroke="#3a0000" stroke-width="0.3"/><rect x="626.500" y="5216.500" width="740.000" height="6.500" fill="#8B0000" stroke="#3a0000" stroke-width="0.3"/><rect x="0.000" y="4176.500" width="620.000" height="6.500" fill="#8B0000" stroke="#3a0000" stroke-width="0.3"/><rect x="0.000" y="5043.000" width="340.000" height="6.500" fill="#8B0000" stroke="#3a0000" stroke-width="0.3"/><rect x="346.500" y="5043.000" width="260.000" height="6.500" fill="#8B0000" stroke="#3a0000" stroke-width="0.3"/><rect x="1373.000" y="3770.000" width="660.000" height="6.500" fill="#8B0000" stroke="#3a0000" stroke-width="0.3"/><rect x="1373.000" y="4696.500" width="620.000" height="6.500" fill="#8B0000" stroke="#3a0000" stroke-width="0.3"/><rect x="613.000" y="5403.000" width="1400.000" height="6.500" fill="#8B0000" stroke="#3a0000" stroke-width="0.3"/><rect x="606.500" y="5223.000" width="6.500" height="180.000" fill="#8B0000" stroke="#3a0000" stroke-width="0.3"/><rect x="606.500" y="5409.500" width="6.500" height="60.000" fill="#8B0000" stroke="#3a0000" stroke-width="0.3"/><rect x="340.000" y="5049.500" width="6.500" height="420.000" fill="#8B0000" stroke="#3a0000" stroke-width="0.3"/><rect x="0.000" y="2850.000" width="620.000" height="460.000" fill="#cfe8ff" stroke="#1f4a6d" stroke-width="0.5"/><text x="2.000" y="2862.000" font-size="10" fill="#1f4a6d">panel_g</text><rect x="626.500" y="2850.000" width="740.000" height="1180.000" fill="#cfe8ff" stroke="#1f4a6d" stroke-width="0.5"/><text x="628.500" y="2862.000" font-size="10" fill="#1f4a6d">core_d</text><rect x="626.500" y="4036.500" width="740.000" height="1180.000" fill="#cfe8ff" stroke="#1f4a6d" stroke-width="0.5"/><text x="628.500" y="4048.500" font-size="10" fill="#1f4a6d">core_d</text><rect x="0.000" y="3316.500" width="620.000" height="860.000" fill="#cfe8ff" stroke="#1f4a6d" stroke-width="0.5"/><text x="2.000" y="3328.500" font-size="10" fill="#1f4a6d">panel_c</text><rect x="0.000" y="4183.000" width="620.000" height="860.000" fill="#cfe8ff" stroke="#1f4a6d" stroke-width="0.5"/><text x="2.000" y="4195.000" font-size="10" fill="#1f4a6d">panel_c</text><rect x="1373.000" y="2850.000" width="660.000" height="920.000" fill="#cfe8ff" stroke="#1f4a6d" stroke-width="0.5"/><text x="1375.000" y="2862.000" font-size="10" fill="#1f4a6d">panel_b</text><rect x="1373.000" y="3776.500" width="660.000" height="920.000" fill="#cfe8ff" stroke="#1f4a6d" stroke-width="0.5"/><text x="1375.000" y="3788.500" font-size="10" fill="#1f4a6d">panel_b</text><rect x="1373.000" y="4703.000" width="620.000" height="460.000" fill="#cfe8ff" stroke="#1f4a6d" stroke-width="0.5"/><text x="1375.000" y="4715.000" font-size="10" fill="#1f4a6d">panel_g</text><rect x="613.000" y="5223.000" width="1400.000" height="180.000" fill="#cfe8ff" stroke="#1f4a6d" stroke-width="0.5"/><text x="615.000" y="5235.000" font-size="10" fill="#1f4a6d">strip_a</text><rect x="613.000" y="5409.500" width="1400.000" height="180.000" fill="#cfe8ff" stroke="#1f4a6d" stroke-width="0.5"/><text x="615.000" y="5421.500" font-size="10" fill="#1f4a6d">strip_a</text><rect x="0.000" y="5049.500" width="340.000" height="560.000" fill="#cfe8ff" stroke="#1f4a6d" stroke-width="0.5"/><text x="2.000" y="5061.500" font-size="10" fill="#1f4a6d">small_a</text><rect x="346.500" y="5049.500" width="260.000" height="420.000" fill="#cfe8ff" stroke="#1f4a6d" stroke-width="0.5"/><text x="348.500" y="5061.500" font-size="10" fill="#1f4a6d">small_c</text><rect x="-10.000" y="5690.000" width="2070.000" height="2800.000" fill="#f5f5f5" stroke="#333" stroke-width="1"/><text x="-5.000" y="5710.000" font-size="14" font-weight="bold" fill="#333">Sheet 3 (mdf-2800x2070)</text><rect x="760.000" y="5700.000" width="6.500" height="1040.000" fill="#8B0000" stroke="#3a0000" stroke-width="0.3"/><rect x="0.000" y="6740.000" width="700.000" height="6.500" fill="#8B0000" stroke="#3a0000" stroke-width="0.3"/><rect x="706.500" y="6740.000" width="53.500" height="6.500" fill="#8B0000" stroke="#3a0000" stroke-width="0.3"/><rect x="766.500" y="6740.000" width="640.000" height="6.500" fill="#8B0000" stroke="#3a0000" stroke-width="0.3"/><rect x="1413.000" y="6740.000" width="113.500" height="6.500" fill="#8B0000" stroke="#3a0000" stroke-width="0.3"/><rect x="1526.500" y="5700.000" width="6.500" height="680.000" fill="#8B0000" stroke="#3a0000" stroke-width="0.3"/><rect x="1526.500" y="6386.500" width="6.500" height="300.000" fill="#8B0000" stroke="#3a0000" stroke-width="0.3"/><rect x="700.000" y="6746.500" width="6.500" height="980.000" fill="#8B0000" stroke="#3a0000" stroke-width="0.3"/><rect x="0.000" y="7726.500" width="540.000" height="6.500" fill="#8B0000" stroke="#3a0000" stroke-width="0.3"/><rect x="546.500" y="7726.500" width="153.500" height="6.500" fill="#8B0000" stroke="#3a0000" stroke-width="0.3"/><rect x="1406.500" y="6746.500" width="6.500" height="800.000" fill="#8B0000" stroke="#3a0000" stroke-width="0.3"/><rect x="1406.500" y="7553.000" width="6.500" height="173.500" fill="#8B0000" stroke="#3a0000" stroke-width="0.3"/><rect x="706.500" y="7726.500" width="340.000" height="6.500" fill="#8B0000" stroke="#3a0000" stroke-width="0.3"/><rect x="1053.000" y="7726.500" width="340.000" height="6.500" fill="#8B0000" stroke="#3a0000" stroke-width="0.3"/><rect x="1413.000" y="7546.500" width="540.000" height="6.500" fill="#8B0000" stroke="#3a0000" stroke-width="0.3"/><rect x="1413.000" y="8293.000" width="540.000" height="6.500" fill="#8B0000" stroke="#3a0000" stroke-width="0.3"/><rect x="540.000" y="7733.000" width="6.500" height="680.000" fill="#8B0000" stroke="#3a0000" stroke-width="0.3"/><rect x="1533.000" y="6380.000" width="480.000" height="6.500" fill="#8B0000" stroke="#3a0000" stroke-width="0.3"/><rect x="1046.500" y="7733.000" width="6.500" height="560.000" fill="#8B0000" stroke="#3a0000" stroke-width="0.3"/><rect x="1046.500" y="8299.500" width="6.500" height="113.500" fill="#8B0000" stroke="#3a0000" stroke-width="0.3"/><rect x="1053.000" y="8293.000" width="340.000" height="6.500" fill="#8B0000" stroke="#3a0000" stroke-width="0.3"/><rect x="0.000" y="5700.000" width="760.000" height="1040.000" fill="#cfe8ff" stroke="#1f4a6d" stroke-width="0.5"/><text x="2.000" y="5712.000" font-size="10" fill="#1f4a6d">core_f</text><rect x="766.500" y="5700.000" width="760.000" height="1040.000" fill="#cfe8ff" stroke="#1f4a6d" stroke-width="0.5"/><text x="768.500" y="5712.000" font-size="10" fill="#1f4a6d">core_f</text><rect x="0.000" y="6746.500" width="700.000" height="980.000" fill="#cfe8ff" stroke="#1f4a6d" stroke-width="0.5"/><text x="2.000" y="6758.500" font-size="10" fill="#1f4a6d">panel_a</text><rect x="706.500" y="6746.500" width="700.000" height="980.000" fill="#cfe8ff" stroke="#1f4a6d" stroke-width="0.5"/><text x="708.500" y="6758.500" font-size="10" fill="#1f4a6d">panel_a</text><rect x="1413.000" y="6746.500" width="580.000" height="800.000" fill="#cfe8ff" stroke="#1f4a6d" stroke-width="0.5"/><text x="1415.000" y="6758.500" font-size="10" fill="#1f4a6d">panel_d</text><rect x="1413.000" y="7553.000" width="540.000" height="740.000" fill="#cfe8ff" stroke="#1f4a6d" stroke-width="0.5"/><text x="1415.000" y="7565.000" font-size="10" fill="#1f4a6d">panel_e</text><rect x="0.000" y="7733.000" width="540.000" height="740.000" fill="#cfe8ff" stroke="#1f4a6d" stroke-width="0.5"/><text x="2.000" y="7745.000" font-size="10" fill="#1f4a6d">panel_e</text><rect x="1533.000" y="5700.000" width="500.000" height="680.000" fill="#cfe8ff" stroke="#1f4a6d" stroke-width="0.5"/><text x="1535.000" y="5712.000" font-size="10" fill="#1f4a6d">panel_f</text><rect x="546.500" y="7733.000" width="500.000" height="680.000" fill="#cfe8ff" stroke="#1f4a6d" stroke-width="0.5"/><text x="548.500" y="7745.000" font-size="10" fill="#1f4a6d">panel_f</text><rect x="1533.000" y="6386.500" width="480.000" height="300.000" fill="#cfe8ff" stroke="#1f4a6d" stroke-width="0.5"/><text x="1535.000" y="6398.500" font-size="10" fill="#1f4a6d">small_b</text><rect x="1053.000" y="7733.000" width="340.000" height="560.000" fill="#cfe8ff" stroke="#1f4a6d" stroke-width="0.5"/><text x="1055.000" y="7745.000" font-size="10" fill="#1f4a6d">small_a</text><rect x="1053.000" y="8299.500" width="980.000" height="120.000" fill="#cfe8ff" stroke="#1f4a6d" stroke-width="0.5"/><text x="1055.000" y="8311.500" font-size="10" fill="#1f4a6d">strip_d</text><rect x="-10.000" y="8540.000" width="2070.000" height="2800.000" fill="#f5f5f5" stroke="#333" stroke-width="1"/><text x="-5.000" y="8560.000" font-size="14" font-weight="bold" fill="#333">Sheet 4 (mdf-2800x2070)</text><rect x="0.000" y="9790.000" width="780.000" height="6.500" fill="#8B0000" stroke="#3a0000" stroke-width="0.3"/><rect x="780.000" y="8550.000" width="6.500" height="820.000" fill="#8B0000" stroke="#3a0000" stroke-width="0.3"/><rect x="780.000" y="9376.500" width="6.500" height="413.500" fill="#8B0000" stroke="#3a0000" stroke-width="0.3"/><rect x="780.000" y="9796.500" width="6.500" height="400.000" fill="#8B0000" stroke="#3a0000" stroke-width="0.3"/><rect x="780.000" y="10203.000" width="6.500" height="580.000" fill="#8B0000" stroke="#3a0000" stroke-width="0.3"/><rect x="780.000" y="10789.500" width="6.500" height="120.000" fill="#8B0000" stroke="#3a0000" stroke-width="0.3"/><rect x="0.000" y="11036.500" width="420.000" height="6.500" fill="#8B0000" stroke="#3a0000" stroke-width="0.3"/><rect x="786.500" y="9370.000" width="1120.000" height="6.500" fill="#8B0000" stroke="#3a0000" stroke-width="0.3"/><rect x="1906.500" y="8550.000" width="6.500" height="820.000" fill="#8B0000" stroke="#3a0000" stroke-width="0.3"/><rect x="786.500" y="10196.500" width="800.000" height="6.500" fill="#8B0000" stroke="#3a0000" stroke-width="0.3"/><rect x="1906.500" y="9376.500" width="6.500" height="413.500" fill="#8B0000" stroke="#3a0000" stroke-width="0.3"/><rect x="1593.000" y="10196.500" width="300.000" height="6.500" fill="#8B0000" stroke="#3a0000" stroke-width="0.3"/><rect x="1586.500" y="10203.000" width="6.500" height="480.000" fill="#8B0000" stroke="#3a0000" stroke-width="0.3"/><rect x="786.500" y="10783.000" width="800.000" height="6.500" fill="#8B0000" stroke="#3a0000" stroke-width="0.3"/><rect x="0.000" y="8550.000" width="780.000" height="1240.000" fill="#cfe8ff" stroke="#1f4a6d" stroke-width="0.5"/><text x="2.000" y="8562.000" font-size="10" fill="#1f4a6d">core_c</text><rect x="0.000" y="9796.500" width="780.000" height="1240.000" fill="#cfe8ff" stroke="#1f4a6d" stroke-width="0.5"/><text x="2.000" y="9808.500" font-size="10" fill="#1f4a6d">core_c</text><rect x="786.500" y="8550.000" width="1120.000" height="820.000" fill="#cfe8ff" stroke="#1f4a6d" stroke-width="0.5"/><text x="788.500" y="8562.000" font-size="10" fill="#1f4a6d">core_e</text><rect x="786.500" y="9376.500" width="1120.000" height="820.000" fill="#cfe8ff" stroke="#1f4a6d" stroke-width="0.5"/><text x="788.500" y="9388.500" font-size="10" fill="#1f4a6d">core_e</text><rect x="786.500" y="10203.000" width="800.000" height="580.000" fill="#cfe8ff" stroke="#1f4a6d" stroke-width="0.5"/><text x="788.500" y="10215.000" font-size="10" fill="#1f4a6d">panel_d</text><rect x="1913.000" y="8550.000" width="130.000" height="1240.000" fill="#cfe8ff" stroke="#1f4a6d" stroke-width="0.5"/><text x="1915.000" y="8562.000" font-size="10" fill="#1f4a6d">strip_c</text><rect x="1593.000" y="10203.000" width="300.000" height="480.000" fill="#cfe8ff" stroke="#1f4a6d" stroke-width="0.5"/><text x="1595.000" y="10215.000" font-size="10" fill="#1f4a6d">small_b</text><rect x="786.500" y="10789.500" width="980.000" height="120.000" fill="#cfe8ff" stroke="#1f4a6d" stroke-width="0.5"/><text x="788.500" y="10801.500" font-size="10" fill="#1f4a6d">strip_d</text><rect x="0.000" y="11043.000" width="420.000" height="260.000" fill="#cfe8ff" stroke="#1f4a6d" stroke-width="0.5"/><text x="2.000" y="11055.000" font-size="10" fill="#1f4a6d">small_c</text></svg>