<svg xmlns="http://www.w3.org/2000/svg" viewBox="-10.000 -10.000 2070.000 11350.000"><rect x="-10.000" y="-10.000" width="2070.000" height="2800.000" fill="#f5f5f5" stroke="#333" stroke-width="1"/><text x="-5.000" y="10.000" font-size="14" font-weight="bold" fill="#333">Sheet 1 (mdf-2800x2070)</text><rect x="950.000" y="0.000" width="6.500" height="1400.000" fill="#8B0000" stroke="#3a0000" stroke-width="0.3"/><rect x="0.000" y="1400.000" width="150.000" height="6.500" fill="#8B0000" stroke="#3a0000" stroke-width="0.3"/><rect x="156.500" y="1400.000" width="150.000" height="6.500" fill="#8B0000" stroke="#3a0000" stroke-width="0.3"/><rect x="313.000" y="1400.000" width="637.000" height="6.500" fill="#8B0000" stroke="#3a0000" stroke-width="0.3"/><rect x="1906.500" y="0.000" width="6.500" height="1240.000" fill="#8B0000" stroke="#3a0000" stroke-width="0.3"/><rect x="956.500" y="1400.000" width="206.500" height="6.500" fill="#8B0000" stroke="#3a0000" stroke-width="0.3"/><rect x="1169.500" y="1400.000" width="737.000" height="6.500" fill="#8B0000" stroke="#3a0000" stroke-width="0.3"/><rect x="150.000" y="1406.500" width="6.500" height="1360.000" fill="#8B0000" stroke="#3a0000" stroke-width="0.3"/><rect x="306.500" y="1406.500" width="6.500" height="1300.000" fill="#8B0000" stroke="#3a0000" stroke-width="0.3"/><rect x="1163.000" y="1406.500" width="6.500" height="1300.000" fill="#8B0000" stroke="#3a0000" stroke-width="0.3"/><rect x="0.000" y="0.000" width="950.000" height="1400.000" fill="#cfe8ff" stroke="#1f4a6d" stroke-width="0.5"/><text x="2.000" y="12.000" font-size="10" fill="#1f4a6d">core_a</text><rect x="956.500" y="0.000" width="950.000" height="1400.000" fill="#cfe8ff" stroke="#1f4a6d" stroke-width="0.5"/><text x="958.500" y="12.000" font-size="10" fill="#1f4a6d">core_a</text><rect x="1913.000" y="0.000" width="130.000" height="1240.000" fill="#cfe8ff" stroke="#1f4a6d" stroke-width="0.5"/><text x="1915.000" y="12.000" font-size="10" fill="#1f4a6d">strip_c</text><rect x="0.000" y="1406.500" width="150.000" height="1360.000" fill="#cfe8ff" stroke="#1f4a6d" stroke-width="0.5"/><text x="2.000" y="1418.500" font-size="10" fill="#1f4a6d">strip_b</text><rect x="156.500" y="1406.500" width="150.000" height="1360.000" fill="#cfe8ff" stroke="#1f4a6d" stroke-width="0.5"/><text x="158.500" y="1418.500" font-size="10" fill="#1f4a6d">strip_b</text><rect x="313.000" y="1406.500" width="850.000" height="1300.000" fill="#cfe8ff" stroke="#1f4a6d" stroke-width="0.5"/><text x="315.000" y="1418.500" font-size="10" fill="#1f4a6d">core_b</text><rect x="1169.500" y="1406.500" width="850.000" height="1300.000" fill="#cfe8ff" stroke="#1f4a6d" stroke-width="0.5"/><text x="1171.500" y="1418.500" font-size="10" fill="#1f4a6d">core_b</text><rect x="-10.000" y="2840.000" width="2070.000" height="2800.000" fill="#f5f5f5" stroke="#333" stroke-width="1"/><text x="-5.000" y="2860.000" font-size="14" font-weight="bold" fill="#333">Sheet 2 (mdf-2800x2070)</text><rect x="0.000" y="4250.000" width="180.000" height="6.500" fill="#8B0000" stroke="#3a0000" stroke-width="0.3"/><rect x="180.000" y="2850.000" width="6.500" height="1240.000" fill="#8B0000" stroke="#3a0000" stroke-width="0.3"/><rect x="180.000" y="4096.500" width="6.500" height="130.000" fill="#8B0000" stroke="#3a0000" stroke-width="0.3"/><rect x="0.000" y="4436.500" width="740.000" height="6.500" fill="#8B0000" stroke="#3a0000" stroke-width="0.3"/><rect x="746.500" y="4436.500" width="653.500" height="6.500" fill="#8B0000" stroke="#3a0000" stroke-width="0.3"/><rect x="966.500" y="2850.000" width="6.500" height="1240.000" fill="#8B0000" stroke="#3a0000" stroke-width="0.3"/><rect x="186.500" y="4090.000" width="780.000" height="6.500" fill="#8B0000" stroke="#3a0000" stroke-width="0.3"/><rect x="973.000" y="4090.000" width="453.500" height="6.500" fill="#8B0000" stroke="#3a0000" stroke-width="0.3"/><rect x="1753.000" y="2850.000" width="6.500" height="980.000" fill="#8B0000" stroke="#3a0000" stroke-width="0.3"/><rect x="1493.000" y="4090.000" width="260.000" height="6.500" fill="#8B0000" stroke="#3a0000" stroke-width="0.3"/><rect x="740.000" y="4443.000" width="6.500" height="1180.000" fill="#8B0000" stroke="#3a0000" stroke-width="0.3"/><rect x="1486.500" y="4443.000" width="6.500" height="393.500" fill="#8B0000" stroke="#3a0000" stroke-width="0.3"/><rect x="1486.500" y="4843.000" width="6.500" height="740.000" fill="#8B0000" stroke="#3a0000" stroke-width="0.3"/><rect x="1879.500" y="2850.000" width="6.500" height="980.000" fill="#8B0000" stroke="#3a0000" stroke-width="0.3"/><rect x="1493.000" y="4836.500" width="540.000" height="6.500" fill="#8B0000" stroke="#3a0000" stroke-width="0.3"/><rect x="0.000" y="2850.000" width="180.000" height="1400.000" fill="#cfe8ff" stroke="#1f4a6d" stroke-width="0.5"/><text x="2.000" y="2862.000" font-size="10" fill="#1f4a6d">strip_a</text><rect x="0.000" y="4256.500" width="1400.000" height="180.000" fill="#cfe8ff" stroke="#1f4a6d" stroke-width="0.5"/><text x="2.000" y="4268.500" font-size="10" fill="#1f4a6d">strip_a</text><rect x="186.500" y="2850.000" width="780.000" height="1240.000" fill="#cfe8ff" stroke="#1f4a6d" stroke-width="0.5"/><text x="188.500" y="2862.000" font-size="10" fill="#1f4a6d">core_c</text><rect x="973.000" y="2850.000" width="780.000" height="1240.000" fill="#cfe8ff" stroke="#1f4a6d" stroke-width="0.5"/><text x="975.000" y="2862.000" font-size="10" fill="#1f4a6d">core_c</text><rect x="186.500" y="4096.500" width="1240.000" height="130.000" fill="#cfe8ff" stroke="#1f4a6d" stroke-width="0.5"/><text x="188.500" y="4108.500" font-size="10" fill="#1f4a6d">strip_c</text><rect x="0.000" y="4443.000" width="740.000" height="1180.000" fill="#cfe8ff" stroke="#1f4a6d" stroke-width="0.5"/><text x="2.000" y="4455.000" font-size="10" fill="#1f4a6d">core_d</text><rect x="746.500" y="4443.000" width="740.000" height="1180.000" fill="#cfe8ff" stroke="#1f4a6d" stroke-width="0.5"/><text x="748.500" y="4455.000" font-size="10" fill="#1f4a6d">core_d</text><rect x="1759.500" y="2850.000" width="120.000" height="980.000" fill="#cfe8ff" stroke="#1f4a6d" stroke-width="0.5"/><text x="1761.500" y="2862.000" font-size="10" fill="#1f4a6d">strip_d</text><rect x="1886.000" y="2850.000" width="120.000" height="980.000" fill="#cfe8ff" stroke="#1f4a6d" stroke-width="0.5"/><text x="1888.000" y="2862.000" font-size="10" fill="#1f4a6d">strip_d</text><rect x="1493.000" y="4096.500" width="540.000" height="740.000" fill="#cfe8ff" stroke="#1f4a6d" stroke-width="0.5"/><text x="1495.000" y="4108.500" font-size="10" fill="#1f4a6d">panel_e</text><rect x="1493.000" y="4843.000" width="540.000" height="740.000" fill="#cfe8ff" stroke="#1f4a6d" stroke-width="0.5"/><text x="1495.000" y="4855.000" font-size="10" fill="#1f4a6d">panel_e</text><rect x="-10.000" y="5690.000" width="2070.000" height="2800.000" fill="#f5f5f5" stroke="#333" stroke-width="1"/><text x="-5.000" y="5710.000" font-size="14" font-weight="bold" fill="#333">Sheet 3 (mdf-2800x2070)</text><rect x="820.000" y="5700.000" width="6.500" height="1120.000" fill="#8B0000" stroke="#3a0000" stroke-width="0.3"/><rect x="0.000" y="6820.000" width="760.000" height="6.500" fill="#8B0000" stroke="#3a0000" stroke-width="0.3"/><rect x="766.500" y="6820.000" width="53.500" height="6.500" fill="#8B0000" stroke="#3a0000" stroke-width="0.3"/><rect x="826.500" y="6820.000" width="700.000" height="6.500" fill="#8B0000" stroke="#3a0000" stroke-width="0.3"/><rect x="1533.000" y="6820.000" width="113.500" height="6.500" fill="#8B0000" stroke="#3a0000" stroke-width="0.3"/><rect x="1646.500" y="5700.000" width="6.500" height="560.000" fill="#8B0000" stroke="#3a0000" stroke-width="0.3"/><rect x="1646.500" y="6266.500" width="6.500" height="480.000" fill="#8B0000" stroke="#3a0000" stroke-width="0.3"/><rect x="760.000" y="6826.500" width="6.500" height="1040.000" fill="#8B0000" stroke="#3a0000" stroke-width="0.3"/><rect x="0.000" y="7866.500" width="760.000" height="6.500" fill="#8B0000" stroke="#3a0000" stroke-width="0.3"/><rect x="766.500" y="7866.500" width="33.500" height="6.500" fill="#8B0000" stroke="#3a0000" stroke-width="0.3"/><rect x="806.500" y="7866.500" width="720.000" height="6.500" fill="#8B0000" stroke="#3a0000" stroke-width="0.3"/><rect x="1526.500" y="6826.500" width="6.500" height="680.000" fill="#8B0000" stroke="#3a0000" stroke-width="0.3"/><rect x="1526.500" y="7513.000" width="6.500" height="300.000" fill="#8B0000" stroke="#3a0000" stroke-width="0.3"/><rect x="800.000" y="7873.000" width="6.500" height="580.000" fill="#8B0000" stroke="#3a0000" stroke-width="0.3"/><rect x="1606.500" y="7873.000" width="6.500" height="506.500" fill="#8B0000" stroke="#3a0000" stroke-width="0.3"/><rect x="1533.000" y="7506.500" width="480.000" height="6.500" fill="#8B0000" stroke="#3a0000" stroke-width="0.3"/><rect x="1613.000" y="7813.000" width="340.000" height="6.500" fill="#8B0000" stroke="#3a0000" stroke-width="0.3"/><rect x="1653.000" y="6260.000" width="300.000" height="6.500" fill="#8B0000" stroke="#3a0000" stroke-width="0.3"/><rect x="0.000" y="5700.000" width="820.000" height="1120.000" fill="#cfe8ff" stroke="#1f4a6d" stroke-width="0.5"/><text x="2.000" y="5712.000" font-size="10" fill="#1f4a6d">core_e</text><rect x="826.500" y="5700.000" width="820.000" height="1120.000" fill="#cfe8ff" stroke="#1f4a6d" stroke-width="0.5"/><text x="828.500" y="5712.000" font-size="10" fill="#1f4a6d">core_e</text><rect x="0.000" y="6826.500" width="760.000" height="1040.000" fill="#cfe8ff" stroke="#1f4a6d" stroke-width="0.5"/><text x="2.000" y="6838.500" font-size="10" fill="#1f4a6d">core_f</text><rect x="766.500" y="6826.500" width="760.000" height="1040.000" fill="#cfe8ff" stroke="#1f4a6d" stroke-width="0.5"/><text x="768.500" y="6838.500" font-size="10" fill="#1f4a6d">core_f</text><rect x="0.000" y="7873.000" width="800.000" height="580.000" fill="#cfe8ff" stroke="#1f4a6d" stroke-width="0.5"/><text x="2.000" y="7885.000" font-size="10" fill="#1f4a6d">panel_d</text><rect x="806.500" y="7873.000" width="800.000" height="580.000" fill="#cfe8ff" stroke="#1f4a6d" stroke-width="0.5"/><text x="808.500" y="7885.000" font-size="10" fill="#1f4a6d">panel_d</text><rect x="1533.000" y="6826.500" width="500.000" height="680.000" fill="#cfe8ff" stroke="#1f4a6d" stroke-width="0.5"/><text x="1535.000" y="6838.500" font-size="10" fill="#1f4a6d">panel_f</text><rect x="1613.000" y="7819.500" width="340.000" height="560.000" fill="#cfe8ff" stroke="#1f4a6d" stroke-width="0.5"/><text x="1615.000" y="7831.500" font-size="10" fill="#1f4a6d">small_a</text><rect x="1653.000" y="5700.000" width="340.000" height="560.000" fill="#cfe8ff" stroke="#1f4a6d" stroke-width="0.5"/><text x="1655.000" y="5712.000" font-size="10" fill="#1f4a6d">small_a</text><rect x="1533.000" y="7513.000" width="480.000" height="300.000" fill="#cfe8ff" stroke="#1f4a6d" stroke-width="0.5"/><text x="1535.000" y="7525.000" font-size="10" fill="#1f4a6d">small_b</text><rect x="1653.000" y="6266.500" width="300.000" height="480.000" fill="#cfe8ff" stroke="#1f4a6d" stroke-width="0.5"/><text x="1655.000" y="6278.500" font-size="10" fill="#1f4a6d">small_b</text><rect x="-10.000" y="8540.000" width="2070.000" height="2800.000" fill="#f5f5f5" stroke="#333" stroke-width="1"/><text x="-5.000" y="8560.000" font-size="14" font-weight="bold" fill="#333">Sheet 4 (mdf-2800x2070)</text><rect x="700.000" y="8550.000" width="6.500" height="980.000" fill="#8B0000" stroke="#3a0000" stroke-width="0.3"/><rect x="0.000" y="9530.000" width="500.000" height="6.500" fill="#8B0000" stroke="#3a0000" stroke-width="0.3"/><rect x="506.500" y="9530.000" width="193.500" height="6.500" fill="#8B0000" stroke="#3a0000" stroke-width="0.3"/><rect x="1406.500" y="8550.000" width="6.500" height="860.000" fill="#8B0000" stroke="#3a0000" stroke-width="0.3"/><rect x="706.500" y="9530.000" width="260.000" height="6.500" fill="#8B0000" stroke="#3a0000" stroke-width="0.3"/><rect x="973.000" y="9530.000" width="433.500" height="6.500" fill="#8B0000" stroke="#3a0000" stroke-width="0.3"/><rect x="500.000" y="9536.500" width="6.500" height="620.000" fill="#8B0000" stroke="#3a0000" stroke-width="0.3"/><rect x="0.000" y="10216.500" width="500.000" height="6.500" fill="#8B0000" stroke="#3a0000" stroke-width="0.3"/><rect x="966.500" y="9536.500" width="6.500" height="620.000" fill="#8B0000" stroke="#3a0000" stroke-width="0.3"/><rect x="1433.000" y="9536.500" width="6.500" height="420.000" fill="#8B0000" stroke="#3a0000" stroke-width="0.3"/><rect x="1699.500" y="9536.500" width="6.500" height="420.000" fill="#8B0000" stroke="#3a0000" stroke-width="0.3"/><rect x="660.000" y="10223.000" width="6.500" height="920.000" fill="#8B0000" stroke="#3a0000" stroke-width="0.3"/><rect x="1326.500" y="10223.000" width="6.500" height="860.000" fill="#8B0000" stroke="#3a0000" stroke-width="0.3"/><rect x="0.000" y="8550.000" width="700.000" height="980.000" fill="#cfe8ff" stroke="#1f4a6d" stroke-width="0.5"/><text x="2.000" y="8562.000" font-size="10" fill="#1f4a6d">panel_a</text><rect x="706.500" y="8550.000" width="700.000" height="980.000" fill="#cfe8ff" stroke="#1f4a6d" stroke-width="0.5"/><text x="708.500" y="8562.000" font-size="10" fill="#1f4a6d">panel_a</text><rect x="1413.000" y="8550.000" width="620.000" height="860.000" fill="#cfe8ff" stroke="#1f4a6d" stroke-width="0.5"/><text x="1415.000" y="8562.000" font-size="10" fill="#1f4a6d">panel_c</text><rect x="0.000" y="9536.500" width="500.000" height="680.000" fill="#cfe8ff" stroke="#1f4a6d" stroke-width="0.5"/><text x="2.000" y="9548.500" font-size="10" fill="#1f4a6d">panel_f</text><rect x="506.500" y="9536.500" width="460.000" height="620.000" fill="#cfe8ff" stroke="#1f4a6d" stroke-width="0.5"/><text x="508.500" y="9548.500" font-size="10" fill="#1f4a6d">panel_g</text><rect x="973.000" y="9536.500" width="460.000" height="620.000" fill="#cfe8ff" stroke="#1f4a6d" stroke-width="0.5"/><text x="975.000" y="9548.500" font-size="10" fill="#1f4a6d">panel_g</text><rect x="1439.500" y="9536.500" width="260.000" height="420.000" fill="#cfe8ff" stroke="#1f4a6d" stroke-width="0.5"/><text x="1441.500" y="9548.500" font-size="10" fill="#1f4a6d">small_c</text><rect x="1706.000" y="9536.500" width="260.000" height="420.000" fill="#cfe8ff" stroke="#1f4a6d" stroke-width="0.5"/><text x="1708.000" y="9548.500" font-size="10" fill="#1f4a6d">small_c</text><rect x="0.000" y="10223.000" width="660.000" height="920.000" fill="#cfe8ff" stroke="#1f4a6d" stroke-width="0.5"/><text x="2.000" y="10235.000" font-size="10" fill="#1f4a6d">panel_b</text><rect x="666.500" y="10223.000" width="660.000" height="920.000" fill="#cfe8ff" stroke="#1f4a6d" stroke-width="0.5"/><text x="668.500" y="10235.000" font-size="10" fill="#1f4a6d">panel_b</text><rect x="1333.000" y="10223.000" width="620.000" height="860.000" fill="#cfe8ff" stroke="#1f4a6d" stroke-width="0.5"/><text x="1335.000" y="10235.000" font-size="10" fill="#1f4a6d">panel_c</text></svg>